<svg version="1.1" id="Layer_1" xmlns="http://www.w3.org/2000/svg" xmlns:xlink="http://www.w3.org/1999/xlink" x="0px" y="0px"
	 width="100%" viewBox="0 0 356 349" enable-background="new 0 0 356 349" xml:space="preserve">
<path fill="#020202" opacity="1.000000" stroke="none" 
	d="
M336.000000,350.000000 
	C224.386200,350.000000 112.772385,350.000000 1.079291,350.000000 
	C1.079291,233.774643 1.079291,117.549217 1.079291,1.000000 
	C79.687805,1.000000 158.376053,1.000000 237.532150,1.467211 
	C238.682053,11.661876 239.355011,21.389997 240.067062,31.115253 
	C240.113556,31.750286 240.377090,32.406967 240.679001,32.980194 
	C246.377960,43.800911 246.598450,55.774662 248.038635,67.502480 
	C248.331863,69.890266 249.075180,72.229065 249.689163,74.569946 
	C251.348679,80.896881 255.000931,86.684196 254.189331,93.720184 
	C253.994446,95.409653 255.744263,97.819809 257.266266,99.115685 
	C261.437744,102.667389 262.221191,109.430756 258.242645,112.244873 
	C250.082870,99.401398 237.931763,94.577560 223.889023,96.168396 
	C215.755447,97.089806 211.334259,94.910927 206.264374,88.711266 
	C197.598007,78.113693 185.931458,72.846130 171.695221,75.937340 
	C161.024750,78.254280 153.130661,84.654358 147.108322,93.366493 
	C144.821487,96.674706 142.586411,97.117264 138.846375,96.546326 
	C124.822868,94.405556 111.885239,96.612709 102.178665,108.132683 
	C93.964188,117.881798 92.664490,129.425995 94.657135,141.514893 
	C95.172203,144.639633 95.083031,146.899796 91.961037,148.518250 
	C90.218697,149.421494 88.720474,150.838516 87.208076,152.135742 
	C73.832817,163.608078 69.577538,179.453705 76.051193,194.186523 
	C79.273979,201.520981 84.432854,207.410507 91.059990,211.805786 
	C94.423790,214.036743 95.357643,216.165970 94.541573,220.321655 
	C89.818512,244.373108 104.989899,264.340851 128.307144,264.959290 
	C133.421646,265.094940 139.256302,262.601257 143.497406,264.360535 
	C147.880890,266.178894 150.443634,272.012360 154.303024,275.542603 
	C163.666641,284.107727 174.603119,288.327026 187.286072,284.819427 
	C197.447266,282.009277 204.979721,275.309387 211.153549,266.895172 
	C212.111679,265.589325 214.165817,264.375549 215.728546,264.356049 
	C220.856262,264.292145 226.020798,265.291382 231.117096,264.984314 
	C242.365952,264.306549 251.499680,259.478668 257.683014,249.740768 
	C263.839630,240.044891 264.517212,229.395782 262.618439,218.505539 
	C262.116852,215.628677 263.060608,214.526855 264.926300,212.794769 
	C270.002319,208.082336 274.721191,202.985214 279.740967,198.448334 
	C282.507965,202.318695 285.003998,205.873642 287.764679,209.209564 
	C289.441132,211.235321 291.765167,212.743317 293.334778,214.832199 
	C294.215027,216.003647 294.464539,217.890427 294.436646,219.444839 
	C294.397308,221.635605 293.254395,223.923599 293.630127,225.978607 
	C294.268036,229.467270 297.061859,233.037399 296.524292,236.155075 
	C295.693634,240.972458 297.671753,242.187439 301.719330,242.957001 
	C300.629791,243.601471 299.676514,243.646011 298.953644,244.077042 
	C297.920990,244.692749 296.474792,245.469894 296.280243,246.402405 
	C296.074066,247.390671 296.846436,249.323975 297.675049,249.663193 
	C302.022827,251.443054 301.778564,254.975891 302.105469,258.744385 
	C302.621002,264.687042 301.510864,271.437561 308.329895,275.127350 
	C309.055664,275.520050 309.428284,276.776276 309.730774,277.707855 
	C312.866119,287.364441 315.916504,297.048615 319.065125,306.700806 
	C321.804382,315.098053 324.646179,323.461823 327.427368,331.845459 
	C328.037598,333.684937 328.056427,336.636261 329.247650,337.211334 
	C334.851013,339.916565 334.748993,345.240051 336.000000,350.000000 
z"/>
<path fill="#040404" opacity="1.000000" stroke="none" 
	d="
M336.468933,350.000000 
	C334.748993,345.240051 334.851013,339.916565 329.247650,337.211334 
	C328.056427,336.636261 328.037598,333.684937 327.427368,331.845459 
	C324.646179,323.461823 321.804382,315.098053 319.065125,306.700806 
	C315.916504,297.048615 312.866119,287.364441 309.730774,277.707855 
	C309.428284,276.776276 309.055664,275.520050 308.329895,275.127350 
	C301.510864,271.437561 302.621002,264.687042 302.105469,258.744385 
	C301.778564,254.975891 302.022827,251.443054 297.675049,249.663193 
	C296.846436,249.323975 296.074066,247.390671 296.280243,246.402405 
	C296.474792,245.469894 297.920990,244.692749 298.953644,244.077042 
	C299.676514,243.646011 300.629791,243.601471 301.719330,242.957001 
	C297.671753,242.187439 295.693634,240.972458 296.524292,236.155075 
	C297.061859,233.037399 294.268036,229.467270 293.630127,225.978607 
	C293.254395,223.923599 294.397308,221.635605 294.436646,219.444839 
	C294.464539,217.890427 294.215027,216.003647 293.334778,214.832199 
	C291.765167,212.743317 289.441132,211.235321 287.764679,209.209564 
	C285.003998,205.873642 282.507965,202.318695 279.856079,198.140778 
	C281.228638,193.060471 283.256683,188.789062 283.942352,184.312073 
	C285.672760,173.013336 280.828949,163.710785 274.072144,154.962067 
	C274.820831,153.783508 275.389465,152.905212 275.958099,152.026901 
	C275.665771,151.806717 275.373444,151.586517 275.081146,151.366333 
	C274.104279,152.108002 273.127380,152.849686 271.921509,153.433533 
	C270.709686,152.427429 269.726807,151.579132 268.805634,150.330948 
	C269.401062,149.043259 270.354523,147.353546 270.408752,147.381927 
	C274.362671,149.451355 276.522064,145.526489 279.754730,144.457184 
	C277.935272,143.301086 275.914124,142.193359 274.208984,142.559097 
	C269.919067,143.479156 268.150208,141.516235 268.092377,137.795471 
	C268.043365,134.645416 266.763702,133.228607 263.660492,132.761169 
	C263.599426,132.359741 263.677856,132.194519 264.114166,131.896759 
	C266.626465,130.830688 268.780884,129.897156 270.935303,128.963623 
	C270.839020,128.403030 270.742737,127.842453 270.646454,127.281876 
	C268.233307,127.582870 265.820160,127.883865 263.263519,127.845093 
	C262.800690,125.336205 262.481354,123.167068 262.548370,120.995773 
	C265.667450,121.120583 266.415771,119.852005 265.622467,117.331619 
	C264.617249,114.137863 262.250397,113.695946 259.210510,113.839340 
	C258.813599,113.213356 258.618103,112.835197 258.422607,112.457047 
	C262.221191,109.430756 261.437744,102.667389 257.266266,99.115685 
	C255.744263,97.819809 253.994446,95.409653 254.189331,93.720184 
	C255.000931,86.684196 251.348679,80.896881 249.689163,74.569946 
	C249.075180,72.229065 248.331863,69.890266 248.038635,67.502480 
	C246.598450,55.774662 246.377960,43.800911 240.679001,32.980194 
	C240.377090,32.406967 240.113556,31.750286 240.067062,31.115253 
	C239.355011,21.389997 238.682053,11.661876 238.000000,1.467211 
	C277.631104,1.000000 317.262238,1.000000 356.946655,1.000000 
	C356.946655,117.333328 356.946655,233.666656 356.946655,350.000000 
	C350.259216,350.000000 343.598541,350.000000 336.468933,350.000000 
M300.509216,231.154083 
	C300.212555,231.574402 299.915894,231.994720 299.619232,232.415039 
	C300.058411,232.527222 300.497589,232.639420 300.936768,232.751617 
	C300.989349,232.260162 301.041962,231.768723 300.509216,231.154083 
z"/>
<path fill="#F9F9F9" opacity="1.000000" stroke="none" 
	d="
M263.756287,132.029297 
	C263.677856,132.194519 263.599426,132.359741 263.516907,133.151276 
	C263.283997,140.037338 259.605408,147.361557 268.743958,150.730835 
	C269.726807,151.579132 270.709686,152.427429 272.080139,153.700104 
	C272.942535,154.503769 273.417328,154.883057 273.892090,155.262344 
	C280.828949,163.710785 285.672760,173.013336 283.942352,184.312073 
	C283.256683,188.789062 281.228638,193.060471 279.696686,197.733017 
	C274.721191,202.985214 270.002319,208.082336 264.926300,212.794769 
	C263.060608,214.526855 262.116852,215.628677 262.618439,218.505539 
	C264.517212,229.395782 263.839630,240.044891 257.683014,249.740768 
	C251.499680,259.478668 242.365952,264.306549 231.117096,264.984314 
	C226.020798,265.291382 220.856262,264.292145 215.728546,264.356049 
	C214.165817,264.375549 212.111679,265.589325 211.153549,266.895172 
	C204.979721,275.309387 197.447266,282.009277 187.286072,284.819427 
	C174.603119,288.327026 163.666641,284.107727 154.303024,275.542603 
	C150.443634,272.012360 147.880890,266.178894 143.497406,264.360535 
	C139.256302,262.601257 133.421646,265.094940 128.307144,264.959290 
	C104.989899,264.340851 89.818512,244.373108 94.541573,220.321655 
	C95.357643,216.165970 94.423790,214.036743 91.059990,211.805786 
	C84.432854,207.410507 79.273979,201.520981 76.051193,194.186523 
	C69.577538,179.453705 73.832817,163.608078 87.208076,152.135742 
	C88.720474,150.838516 90.218697,149.421494 91.961037,148.518250 
	C95.083031,146.899796 95.172203,144.639633 94.657135,141.514893 
	C92.664490,129.425995 93.964188,117.881798 102.178665,108.132683 
	C111.885239,96.612709 124.822868,94.405556 138.846375,96.546326 
	C142.586411,97.117264 144.821487,96.674706 147.108322,93.366493 
	C153.130661,84.654358 161.024750,78.254280 171.695221,75.937340 
	C185.931458,72.846130 197.598007,78.113693 206.264374,88.711266 
	C211.334259,94.910927 215.755447,97.089806 223.889023,96.168396 
	C237.931763,94.577560 250.082870,99.401398 258.242645,112.244873 
	C258.618103,112.835197 258.813599,113.213356 259.340363,114.190842 
	C260.501770,116.859436 261.331879,118.928688 262.162018,120.997940 
	C262.481354,123.167068 262.800690,125.336205 263.211121,128.234451 
	C263.453552,129.985474 263.604919,131.007385 263.756287,132.029297 
M184.859055,145.243668 
	C180.377121,144.894653 175.895187,144.545624 171.943207,144.237869 
	C172.176987,144.023239 173.006943,143.261230 173.978500,142.369232 
	C167.737900,141.104965 161.464111,138.295929 157.801346,146.108566 
	C157.003281,147.810791 156.241333,149.529922 155.462753,151.241272 
	C154.229553,153.467026 152.470840,155.532745 150.648666,157.540863 
	C150.140091,158.101349 149.473145,158.853302 148.829590,158.905090 
	C141.100006,159.527069 138.158249,163.062195 139.490845,170.302505 
	C139.782623,171.887909 140.097748,173.469025 140.418839,175.138992 
	C141.347855,174.824234 142.109665,174.566132 143.373901,174.137817 
	C141.844620,181.070541 140.309631,187.398727 139.103027,193.788940 
	C138.571747,196.602676 144.861603,203.297485 147.606720,203.316544 
	C148.652176,203.323807 150.076630,203.051102 150.672119,203.607864 
	C152.636871,205.444916 154.301758,207.602676 156.252518,209.832474 
	C156.248566,209.837341 155.361984,210.440048 155.419449,210.932587 
	C156.196930,217.595245 167.627350,222.536026 173.383789,218.762222 
	C176.062866,217.005859 181.046494,216.754532 183.362000,218.258972 
	C189.696182,222.374527 199.209717,219.211075 201.394470,212.131287 
	C201.640442,211.334244 200.698135,210.170502 200.366028,209.327057 
	C202.022034,208.299606 203.665558,207.474014 205.066559,206.346954 
	C206.116257,205.502502 206.689163,203.571533 207.756134,203.320114 
	C216.685974,201.215897 219.388229,197.410156 217.635544,188.808197 
	C217.403839,187.670975 217.061661,186.556259 216.779755,185.466278 
	C215.983612,185.627625 215.191742,185.788086 215.043640,185.818100 
	C215.043640,181.995682 215.043640,178.571869 215.043640,175.367142 
	C215.501648,175.097839 216.788910,174.802017 217.043625,174.120346 
	C219.806442,166.726395 218.890991,163.751236 212.390198,159.270767 
	C211.039856,158.340073 209.264923,158.025421 207.158813,157.227188 
	C205.083557,155.495880 202.346664,153.212616 199.756058,151.051392 
	C200.189850,150.926193 201.106674,150.661591 202.020401,150.388077 
	C195.872238,140.137436 196.705780,138.875732 183.641327,142.710175 
	C184.453400,143.480316 185.239761,144.226059 185.845627,145.144287 
	C185.845627,145.144287 185.660919,145.312210 184.859055,145.243668 
M123.489471,252.174881 
	C128.466507,252.969528 133.443542,253.764175 138.266083,254.534149 
	C136.302032,245.522034 134.645554,237.303055 132.594299,229.183792 
	C132.291046,227.983429 130.244476,226.769455 128.791306,226.399857 
	C124.640877,225.344208 120.341393,224.882904 116.175430,223.877518 
	C112.587349,223.011581 109.102188,221.719177 105.459435,220.580307 
	C103.975212,235.920212 109.946800,246.526550 123.489471,252.174881 
M135.274200,117.905930 
	C136.444656,114.391312 137.615112,110.876686 138.818527,107.263092 
	C116.628548,105.712479 101.511902,121.148361 105.752632,140.397797 
	C110.024902,139.183624 114.270355,137.842026 118.586128,136.788467 
	C122.915558,135.731552 128.728333,136.335007 131.297455,133.690842 
	C134.016891,130.891937 133.681580,125.123550 134.675323,120.651024 
	C134.819199,120.003433 134.934158,119.349419 135.274200,117.905930 
M267.172241,194.545090 
	C274.789124,181.156235 271.395874,166.205933 258.954559,157.506012 
	C254.298935,165.214371 249.633118,172.939621 245.064743,180.503525 
	C249.610260,188.012848 254.291046,195.745636 259.310608,204.038101 
	C261.755798,201.180740 264.309052,198.197144 267.172241,194.545090 
M248.993256,121.733025 
	C242.391617,110.418098 231.294464,105.191032 219.221054,107.577682 
	C221.371613,116.368591 223.524506,125.169052 225.625046,133.755539 
	C234.296188,135.869873 243.089203,138.013901 253.114914,140.458527 
	C251.783676,134.257919 250.516830,128.357239 248.993256,121.733025 
M105.105812,191.686951 
	C107.710838,187.907303 110.315865,184.127655 112.540451,180.899979 
	C107.639969,172.765045 102.986504,165.040176 98.340866,157.328293 
	C81.788818,171.444199 81.926590,191.467285 98.749405,203.739838 
	C100.779114,199.942398 102.804855,196.152374 105.105812,191.686951 
M252.130890,224.580887 
	C252.020462,223.351364 251.910034,222.121857 251.814377,221.056946 
	C242.718048,223.257736 233.966049,225.375214 225.616364,227.395340 
	C223.441971,236.224991 221.289169,244.966949 219.136765,253.707245 
	C238.819427,255.410950 251.433411,244.597580 252.130890,224.580887 
M191.117355,269.873749 
	C194.876663,266.920715 198.635971,263.967712 202.398026,261.012512 
	C194.027908,255.998886 186.235901,251.331543 178.679199,246.805145 
	C171.113403,251.336761 163.330719,255.998306 155.590332,260.634521 
	C164.809769,272.528687 176.895905,275.903534 191.117355,269.873749 
M185.268036,88.910431 
	C172.507996,85.737579 163.314148,91.584503 155.447708,100.151321 
	C163.420151,104.975494 171.165466,109.662239 178.691788,114.216469 
	C186.245377,109.659355 194.005890,104.977417 202.981781,99.562233 
	C197.135468,95.930298 191.604858,92.494476 185.268036,88.910431 
M142.137238,235.136337 
	C144.309631,240.639801 146.482025,246.143265 149.043259,252.631821 
	C157.420273,248.671005 165.005417,245.084610 172.745361,241.425018 
	C168.515900,236.328049 165.185089,232.177887 161.676865,228.183548 
	C160.816177,227.203583 159.343857,226.081360 158.207504,226.137299 
	C152.427368,226.421860 146.665253,227.072113 140.473862,227.632614 
	C140.972107,229.846390 141.475067,232.081116 142.137238,235.136337 
M146.618881,133.882172 
	C150.078598,134.242416 153.532318,134.742447 157.001114,134.891159 
	C158.310608,134.947296 160.125061,134.609573 160.904037,133.734528 
	C164.797424,129.360947 168.423325,124.749290 172.676132,119.572792 
	C164.802917,115.932724 157.255585,112.443329 148.727448,108.500473 
	C145.549088,117.282188 142.677261,125.216934 139.548431,133.861801 
	C142.456131,133.861801 144.093399,133.861801 146.618881,133.882172 
M249.082291,210.578125 
	C249.357468,210.177353 249.962479,209.634613 249.859955,209.396393 
	C246.576065,201.766724 243.223724,194.166519 239.817612,186.416061 
	C234.399719,190.849106 230.003036,194.374252 225.712662,198.024368 
	C224.949020,198.674072 224.114075,199.882858 224.183426,200.764954 
	C224.648651,206.681824 225.349579,212.580170 226.087448,219.556564 
	C233.764313,216.591324 241.088348,213.762375 249.082291,210.578125 
M215.029785,235.449890 
	C215.697342,232.796585 216.364914,230.143280 216.999344,227.621674 
	C210.911331,227.077499 205.306717,226.463516 199.685349,226.163635 
	C198.473007,226.098969 196.831360,226.842377 196.018646,227.767853 
	C192.317215,231.982697 188.841049,236.395355 184.830887,241.289810 
	C189.833633,243.847122 194.638519,246.837769 199.824921,248.840332 
	C209.829041,252.703110 207.768539,253.076630 212.053391,243.658264 
	C213.147202,241.253998 213.951279,238.717911 215.029785,235.449890 
M108.186531,154.045074 
	C111.327164,160.848251 114.467796,167.651428 117.687263,174.625381 
	C122.821472,170.322739 127.100983,166.904556 131.146027,163.228363 
	C132.158951,162.307816 132.986176,160.531311 132.924011,159.193481 
	C132.670258,153.731903 132.038681,148.287903 131.432709,141.580231 
	C123.868469,144.453903 116.485634,147.183121 109.198700,150.148087 
	C108.498032,150.433167 108.393753,152.183960 108.186531,154.045074 
M119.110016,187.314468 
	C112.554031,193.454163 110.302498,201.736649 107.067558,210.622223 
	C115.492393,213.658783 123.442261,216.524155 131.484940,219.422974 
	C132.010437,213.465790 132.246170,208.472748 132.958496,203.548645 
	C133.419907,200.359055 132.612686,198.437469 129.876251,196.545914 
	C126.202888,194.006729 123.030518,190.742767 119.110016,187.314468 
M216.519867,131.067200 
	C214.032700,123.811821 211.545532,116.556442 208.749817,108.401001 
	C199.937424,112.517860 192.361298,116.057167 184.812393,119.583763 
	C188.939087,124.714706 191.718994,130.948990 196.418228,133.231049 
	C201.098038,135.503662 207.704056,133.820358 213.465622,133.844513 
	C214.454285,133.848663 215.480316,133.842896 216.409348,133.570129 
	C216.677841,133.491302 216.668411,132.465851 216.519867,131.067200 
M224.879761,156.020432 
	C225.202530,158.383743 224.672134,161.573486 226.009445,162.954025 
	C229.885727,166.955673 234.512054,170.230759 239.712433,174.504639 
	C243.366516,166.761871 246.960419,159.146606 250.977478,150.634720 
	C242.072510,147.494186 234.181976,144.711426 225.806473,141.757629 
	C225.460754,147.202362 225.208817,151.170135 224.879761,156.020432 
M233.695145,181.817535 
	C233.864960,181.236725 234.369751,180.368958 234.154663,180.117889 
	C230.582092,175.947403 226.919266,171.854248 223.308136,167.779404 
	C218.170273,176.663071 218.098770,184.767578 223.425323,193.092712 
	C226.727188,189.438278 229.936829,185.885941 233.695145,181.817535 
M154.018860,140.134064 
	C149.096802,140.418411 144.174744,140.702759 138.930573,141.005722 
	C138.620544,146.872391 138.332184,152.329178 138.003876,158.541763 
	C140.311081,157.391693 141.544815,156.448685 142.919540,156.146027 
	C150.448166,154.488434 152.838379,148.197952 155.588684,142.258133 
	C155.815414,141.768478 155.136368,140.859421 154.018860,140.134064 
M181.488892,139.963440 
	C184.668381,138.815964 187.847885,137.668472 191.831985,136.230621 
	C187.190308,132.034302 183.002686,128.248459 178.575546,124.246086 
	C174.025574,128.518250 169.979431,132.317307 165.561172,136.465805 
	C168.219604,137.242691 170.077499,137.873459 171.978561,138.320755 
	C174.881638,139.003799 177.814529,139.560120 181.488892,139.963440 
M138.846863,216.684067 
	C139.268234,217.791000 139.588486,219.804306 140.126694,219.864365 
	C145.387772,220.451447 150.685242,220.712616 156.007263,221.068817 
	C153.582077,210.832367 147.696548,205.291855 137.935089,203.140472 
	C138.225601,207.559113 138.496307,211.676483 138.846863,216.684067 
M216.330673,140.918793 
	C211.327927,140.618057 206.325180,140.317337 201.319733,140.016449 
	C203.698792,150.000427 209.588333,155.608032 219.880264,158.126404 
	C218.942154,152.088135 218.080780,146.543762 216.330673,140.918793 
M219.003983,211.415497 
	C219.003983,208.654236 219.003983,205.892975 219.003983,203.052048 
	C208.989517,205.211716 203.736786,211.481140 201.255325,221.207489 
	C207.077698,220.779495 212.516815,220.379669 218.269653,219.956787 
	C218.529526,217.260452 218.765823,214.808868 219.003983,211.415497 
M135.940018,171.701889 
	C135.533768,170.516251 135.127502,169.330597 134.437393,167.316559 
	C130.200302,171.934280 126.422417,176.051575 122.324394,180.517746 
	C126.442680,184.912766 130.266037,188.993057 134.363251,193.365585 
	C137.095474,186.162369 140.672775,179.642349 135.940018,171.701889 
M185.555176,222.933899 
	C178.645996,218.180984 172.732620,223.131805 165.472641,224.575119 
	C170.261368,228.983292 174.339890,232.737701 178.716064,236.766113 
	C183.201920,232.642166 187.265656,228.906296 191.830109,224.710098 
	C189.401749,223.973083 187.875580,223.509903 185.555176,222.933899 
z"/>
<path fill="#020202" opacity="1.000000" stroke="none" 
	d="
M268.805634,150.330948 
	C259.605408,147.361557 263.283997,140.037338 263.656372,133.387512 
	C266.763702,133.228607 268.043365,134.645416 268.092377,137.795471 
	C268.150208,141.516235 269.919067,143.479156 274.208984,142.559097 
	C275.914124,142.193359 277.935272,143.301086 279.754730,144.457184 
	C276.522064,145.526489 274.362671,149.451355 270.408752,147.381927 
	C270.354523,147.353546 269.401062,149.043259 268.805634,150.330948 
z"/>
<path fill="#020202" opacity="1.000000" stroke="none" 
	d="
M262.548370,120.995773 
	C261.331879,118.928688 260.501770,116.859436 259.541809,114.438683 
	C262.250397,113.695946 264.617249,114.137863 265.622467,117.331619 
	C266.415771,119.852005 265.667450,121.120583 262.548370,120.995773 
z"/>
<path fill="#020202" opacity="1.000000" stroke="none" 
	d="
M264.114197,131.896759 
	C263.604919,131.007385 263.453552,129.985474 263.354614,128.574219 
	C265.820160,127.883865 268.233307,127.582870 270.646454,127.281876 
	C270.742737,127.842453 270.839020,128.403030 270.935303,128.963623 
	C268.780884,129.897156 266.626465,130.830688 264.114197,131.896759 
z"/>
<path fill="#020202" opacity="1.000000" stroke="none" 
	d="
M274.072144,154.962067 
	C273.417328,154.883057 272.942535,154.503769 272.309143,153.857925 
	C273.127380,152.849686 274.104279,152.108002 275.081146,151.366333 
	C275.373444,151.586517 275.665771,151.806717 275.958099,152.026901 
	C275.389465,152.905212 274.820831,153.783508 274.072144,154.962067 
z"/>
<path fill="#020202" opacity="1.000000" stroke="none" 
	d="
M300.801880,231.215668 
	C301.041962,231.768723 300.989349,232.260162 300.936768,232.751617 
	C300.497589,232.639420 300.058411,232.527222 299.619202,232.415039 
	C299.915894,231.994720 300.212555,231.574402 300.801880,231.215668 
z"/>
<path fill="#040404" opacity="1.000000" stroke="none" 
	d="
M186.026108,144.971817 
	C185.239761,144.226059 184.453400,143.480316 183.641327,142.710175 
	C196.705780,138.875732 195.872238,140.137436 202.021942,150.392548 
	C201.106674,150.661591 200.189850,150.926193 199.756058,151.051392 
	C202.346664,153.212616 205.083557,155.495880 207.158813,157.227188 
	C209.264923,158.025421 211.039856,158.340073 212.390198,159.270767 
	C218.890991,163.751236 219.806442,166.726395 217.043625,174.120346 
	C216.788910,174.802017 215.501648,175.097839 215.043640,175.367142 
	C215.043640,178.571869 215.043640,181.995682 215.043640,185.818100 
	C215.191742,185.788086 215.983612,185.627625 216.779755,185.466278 
	C217.061661,186.556259 217.403839,187.670975 217.635544,188.808197 
	C219.388229,197.410156 216.685974,201.215897 207.756134,203.320114 
	C206.689163,203.571533 206.116257,205.502502 205.066559,206.346954 
	C203.665558,207.474014 202.022034,208.299606 200.366028,209.327057 
	C200.698135,210.170502 201.640442,211.334244 201.394470,212.131287 
	C199.209717,219.211075 189.696182,222.374527 183.362000,218.258972 
	C181.046494,216.754532 176.062866,217.005859 173.383789,218.762222 
	C167.627350,222.536026 156.196930,217.595245 155.419449,210.932587 
	C155.361984,210.440048 156.248566,209.837341 156.252518,209.832474 
	C154.301758,207.602676 152.636871,205.444916 150.672119,203.607864 
	C150.076630,203.051102 148.652176,203.323807 147.606720,203.316544 
	C144.861603,203.297485 138.571747,196.602676 139.103027,193.788940 
	C140.309631,187.398727 141.844620,181.070541 143.373901,174.137817 
	C142.109665,174.566132 141.347855,174.824234 140.418839,175.138992 
	C140.097748,173.469025 139.782623,171.887909 139.490845,170.302505 
	C138.158249,163.062195 141.100006,159.527069 148.829590,158.905090 
	C149.473145,158.853302 150.140091,158.101349 150.648666,157.540863 
	C152.470840,155.532745 154.229553,153.467026 155.462753,151.241272 
	C156.241333,149.529922 157.003281,147.810791 157.801346,146.108566 
	C161.464111,138.295929 167.737900,141.104965 173.978500,142.369232 
	C173.006943,143.261230 172.176987,144.023239 171.943207,144.237869 
	C175.895187,144.545624 180.377121,144.894653 185.439331,145.529861 
	C186.575623,145.816055 187.131607,145.816055 187.687607,145.816055 
	C187.702225,145.645081 187.716858,145.474106 187.731476,145.303116 
	C187.163025,145.192688 186.594559,145.082245 186.026108,144.971817 
z"/>
<path fill="#060606" opacity="1.000000" stroke="none" 
	d="
M123.105103,252.083252 
	C109.946800,246.526550 103.975212,235.920212 105.459435,220.580307 
	C109.102188,221.719177 112.587349,223.011581 116.175430,223.877518 
	C120.341393,224.882904 124.640877,225.344208 128.791306,226.399857 
	C130.244476,226.769455 132.291046,227.983429 132.594299,229.183792 
	C134.645554,237.303055 136.302032,245.522034 138.266083,254.534149 
	C133.443542,253.764175 128.466507,252.969528 123.105103,252.083252 
z"/>
<path fill="#060606" opacity="1.000000" stroke="none" 
	d="
M135.168335,118.302155 
	C134.934158,119.349419 134.819199,120.003433 134.675323,120.651024 
	C133.681580,125.123550 134.016891,130.891937 131.297455,133.690842 
	C128.728333,136.335007 122.915558,135.731552 118.586128,136.788467 
	C114.270355,137.842026 110.024902,139.183624 105.752632,140.397797 
	C101.511902,121.148361 116.628548,105.712479 138.818527,107.263092 
	C137.615112,110.876686 136.444656,114.391312 135.168335,118.302155 
z"/>
<path fill="#080808" opacity="1.000000" stroke="none" 
	d="
M267.017273,194.879303 
	C264.309052,198.197144 261.755798,201.180740 259.310608,204.038101 
	C254.291046,195.745636 249.610260,188.012848 245.064743,180.503525 
	C249.633118,172.939621 254.298935,165.214371 258.954559,157.506012 
	C271.395874,166.205933 274.789124,181.156235 267.017273,194.879303 
z"/>
<path fill="#060606" opacity="1.000000" stroke="none" 
	d="
M249.121628,122.094788 
	C250.516830,128.357239 251.783676,134.257919 253.114914,140.458527 
	C243.089203,138.013901 234.296188,135.869873 225.625046,133.755539 
	C223.524506,125.169052 221.371613,116.368591 219.221054,107.577682 
	C231.294464,105.191032 242.391617,110.418098 249.121628,122.094788 
z"/>
<path fill="#050505" opacity="1.000000" stroke="none" 
	d="
M104.968201,192.024658 
	C102.804855,196.152374 100.779114,199.942398 98.749405,203.739838 
	C81.926590,191.467285 81.788818,171.444199 98.340866,157.328293 
	C102.986504,165.040176 107.639969,172.765045 112.540451,180.899979 
	C110.315865,184.127655 107.710838,187.907303 104.968201,192.024658 
z"/>
<path fill="#050505" opacity="1.000000" stroke="none" 
	d="
M252.121094,225.038116 
	C251.433411,244.597580 238.819427,255.410950 219.136765,253.707245 
	C221.289169,244.966949 223.441971,236.224991 225.616364,227.395340 
	C233.966049,225.375214 242.718048,223.257736 251.814377,221.056946 
	C251.910034,222.121857 252.020462,223.351364 252.121094,225.038116 
z"/>
<path fill="#050505" opacity="1.000000" stroke="none" 
	d="
M190.754608,269.985901 
	C176.895905,275.903534 164.809769,272.528687 155.590332,260.634521 
	C163.330719,255.998306 171.113403,251.336761 178.679199,246.805145 
	C186.235901,251.331543 194.027908,255.998886 202.398026,261.012512 
	C198.635971,263.967712 194.876663,266.920715 190.754608,269.985901 
z"/>
<path fill="#060606" opacity="1.000000" stroke="none" 
	d="
M185.671143,88.984543 
	C191.604858,92.494476 197.135468,95.930298 202.981781,99.562233 
	C194.005890,104.977417 186.245377,109.659355 178.691788,114.216469 
	C171.165466,109.662239 163.420151,104.975494 155.447708,100.151321 
	C163.314148,91.584503 172.507996,85.737579 185.671143,88.984543 
z"/>
<path fill="#070707" opacity="1.000000" stroke="none" 
	d="
M142.057632,234.726089 
	C141.475067,232.081116 140.972107,229.846390 140.473862,227.632614 
	C146.665253,227.072113 152.427368,226.421860 158.207504,226.137299 
	C159.343857,226.081360 160.816177,227.203583 161.676865,228.183548 
	C165.185089,232.177887 168.515900,236.328049 172.745361,241.425018 
	C165.005417,245.084610 157.420273,248.671005 149.043259,252.631821 
	C146.482025,246.143265 144.309631,240.639801 142.057632,234.726089 
z"/>
<path fill="#070707" opacity="1.000000" stroke="none" 
	d="
M146.174774,133.871979 
	C144.093399,133.861801 142.456131,133.861801 139.548431,133.861801 
	C142.677261,125.216934 145.549088,117.282188 148.727448,108.500473 
	C157.255585,112.443329 164.802917,115.932724 172.676132,119.572792 
	C168.423325,124.749290 164.797424,129.360947 160.904037,133.734528 
	C160.125061,134.609573 158.310608,134.947296 157.001114,134.891159 
	C153.532318,134.742447 150.078598,134.242416 146.174774,133.871979 
z"/>
<path fill="#080808" opacity="1.000000" stroke="none" 
	d="
M248.747330,210.755768 
	C241.088348,213.762375 233.764313,216.591324 226.087448,219.556564 
	C225.349579,212.580170 224.648651,206.681824 224.183426,200.764954 
	C224.114075,199.882858 224.949020,198.674072 225.712662,198.024368 
	C230.003036,194.374252 234.399719,190.849106 239.817612,186.416061 
	C243.223724,194.166519 246.576065,201.766724 249.859955,209.396393 
	C249.962479,209.634613 249.357468,210.177353 248.747330,210.755768 
z"/>
<path fill="#060606" opacity="1.000000" stroke="none" 
	d="
M214.959137,235.846146 
	C213.951279,238.717911 213.147202,241.253998 212.053391,243.658264 
	C207.768539,253.076630 209.829041,252.703110 199.824921,248.840332 
	C194.638519,246.837769 189.833633,243.847122 184.830887,241.289810 
	C188.841049,236.395355 192.317215,231.982697 196.018646,227.767853 
	C196.831360,226.842377 198.473007,226.098969 199.685349,226.163635 
	C205.306717,226.463516 210.911331,227.077499 216.999344,227.621674 
	C216.364914,230.143280 215.697342,232.796585 214.959137,235.846146 
z"/>
<path fill="#060606" opacity="1.000000" stroke="none" 
	d="
M108.099579,153.649719 
	C108.393753,152.183960 108.498032,150.433167 109.198700,150.148087 
	C116.485634,147.183121 123.868469,144.453903 131.432709,141.580231 
	C132.038681,148.287903 132.670258,153.731903 132.924011,159.193481 
	C132.986176,160.531311 132.158951,162.307816 131.146027,163.228363 
	C127.100983,166.904556 122.821472,170.322739 117.687263,174.625381 
	C114.467796,167.651428 111.327164,160.848251 108.099579,153.649719 
z"/>
<path fill="#060606" opacity="1.000000" stroke="none" 
	d="
M119.376541,187.552216 
	C123.030518,190.742767 126.202888,194.006729 129.876251,196.545914 
	C132.612686,198.437469 133.419907,200.359055 132.958496,203.548645 
	C132.246170,208.472748 132.010437,213.465790 131.484940,219.422974 
	C123.442261,216.524155 115.492393,213.658783 107.067558,210.622223 
	C110.302498,201.736649 112.554031,193.454163 119.376541,187.552216 
z"/>
<path fill="#060606" opacity="1.000000" stroke="none" 
	d="
M216.653122,131.470795 
	C216.668411,132.465851 216.677841,133.491302 216.409348,133.570129 
	C215.480316,133.842896 214.454285,133.848663 213.465622,133.844513 
	C207.704056,133.820358 201.098038,135.503662 196.418228,133.231049 
	C191.718994,130.948990 188.939087,124.714706 184.812393,119.583763 
	C192.361298,116.057167 199.937424,112.517860 208.749817,108.401001 
	C211.545532,116.556442 214.032700,123.811821 216.653122,131.470795 
z"/>
<path fill="#070707" opacity="1.000000" stroke="none" 
	d="
M224.918304,155.579163 
	C225.208817,151.170135 225.460754,147.202362 225.806473,141.757629 
	C234.181976,144.711426 242.072510,147.494186 250.977478,150.634720 
	C246.960419,159.146606 243.366516,166.761871 239.712433,174.504639 
	C234.512054,170.230759 229.885727,166.955673 226.009445,162.954025 
	C224.672134,161.573486 225.202530,158.383743 224.918304,155.579163 
z"/>
<path fill="#0C0C0C" opacity="1.000000" stroke="none" 
	d="
M233.420807,182.075562 
	C229.936829,185.885941 226.727188,189.438278 223.425323,193.092712 
	C218.098770,184.767578 218.170273,176.663071 223.308136,167.779404 
	C226.919266,171.854248 230.582092,175.947403 234.154663,180.117889 
	C234.369751,180.368958 233.864960,181.236725 233.420807,182.075562 
z"/>
<path fill="#0C0C0C" opacity="1.000000" stroke="none" 
	d="
M154.448517,140.139648 
	C155.136368,140.859421 155.815414,141.768478 155.588684,142.258133 
	C152.838379,148.197952 150.448166,154.488434 142.919540,156.146027 
	C141.544815,156.448685 140.311081,157.391693 138.003876,158.541763 
	C138.332184,152.329178 138.620544,146.872391 138.930573,141.005722 
	C144.174744,140.702759 149.096802,140.418411 154.448517,140.139648 
z"/>
<path fill="#090909" opacity="1.000000" stroke="none" 
	d="
M181.111832,140.066833 
	C177.814529,139.560120 174.881638,139.003799 171.978561,138.320755 
	C170.077499,137.873459 168.219604,137.242691 165.561172,136.465805 
	C169.979431,132.317307 174.025574,128.518250 178.575546,124.246086 
	C183.002686,128.248459 187.190308,132.034302 191.831985,136.230621 
	C187.847885,137.668472 184.668381,138.815964 181.111832,140.066833 
z"/>
<path fill="#0A0A0A" opacity="1.000000" stroke="none" 
	d="
M138.806946,216.238953 
	C138.496307,211.676483 138.225601,207.559113 137.935089,203.140472 
	C147.696548,205.291855 153.582077,210.832367 156.007263,221.068817 
	C150.685242,220.712616 145.387772,220.451447 140.126694,219.864365 
	C139.588486,219.804306 139.268234,217.791000 138.806946,216.238953 
z"/>
<path fill="#0B0B0B" opacity="1.000000" stroke="none" 
	d="
M216.775040,140.959091 
	C218.080780,146.543762 218.942154,152.088135 219.880264,158.126404 
	C209.588333,155.608032 203.698792,150.000427 201.319733,140.016449 
	C206.325180,140.317337 211.327927,140.618057 216.775040,140.959091 
z"/>
<path fill="#080808" opacity="1.000000" stroke="none" 
	d="
M219.003052,211.886383 
	C218.765823,214.808868 218.529526,217.260452 218.269653,219.956787 
	C212.516815,220.379669 207.077698,220.779495 201.255325,221.207489 
	C203.736786,211.481140 208.989517,205.211716 219.003983,203.052048 
	C219.003983,205.892975 219.003983,208.654236 219.003052,211.886383 
z"/>
<path fill="#080808" opacity="1.000000" stroke="none" 
	d="
M135.993393,172.085205 
	C140.672775,179.642349 137.095474,186.162369 134.363251,193.365585 
	C130.266037,188.993057 126.442680,184.912766 122.324394,180.517746 
	C126.422417,176.051575 130.200302,171.934280 134.437393,167.316559 
	C135.127502,169.330597 135.533768,170.516251 135.993393,172.085205 
z"/>
<path fill="#080808" opacity="1.000000" stroke="none" 
	d="
M185.952301,222.990295 
	C187.875580,223.509903 189.401749,223.973083 191.830109,224.710098 
	C187.265656,228.906296 183.201920,232.642166 178.716064,236.766113 
	C174.339890,232.737701 170.261368,228.983292 165.472641,224.575119 
	C172.732620,223.131805 178.645996,218.180984 185.952301,222.990295 
z"/>
<path fill="#F9F9F9" opacity="1.000000" stroke="none" 
	d="
M185.935867,145.058044 
	C186.594559,145.082245 187.163025,145.192688 187.731476,145.303116 
	C187.716858,145.474106 187.702225,145.645081 187.687607,145.816055 
	C187.131607,145.816055 186.575623,145.816055 185.840271,145.564133 
	C185.660919,145.312210 185.845627,145.144287 185.935867,145.058044 
z"/>
</svg>