<svg version="1.1" id="Layer_1" xmlns="http://www.w3.org/2000/svg" xmlns:xlink="http://www.w3.org/1999/xlink" x="0px" y="0px"
	 width="100%" viewBox="0 0 1612 508" enable-background="new 0 0 1612 508" xml:space="preserve">
<path fill="#2c589e" opacity="1.000000" stroke="none" 
	d="
M850.000000,0.999998 
	C936.022034,1.000000 1022.044006,1.000000 1108.534424,1.420341 
	C1109.709839,5.066417 1110.180420,8.366061 1111.162354,11.505786 
	C1117.060547,30.365797 1122.296509,49.482998 1129.257202,67.947426 
	C1137.279175,89.226990 1146.402588,110.129028 1155.906982,130.799957 
	C1163.453369,147.212723 1171.911255,163.242554 1180.671631,179.050537 
	C1188.871094,193.846283 1198.067993,208.086807 1206.671143,222.663055 
	C1208.758179,226.199051 1210.236328,230.094528 1211.618896,233.923569 
	C1204.987183,236.579590 1198.731201,239.136719 1192.481689,241.691208 
	C1190.047119,235.290817 1189.152344,235.002365 1180.402832,234.715942 
	C1175.733643,234.563049 1174.395020,236.157486 1174.438110,240.704437 
	C1174.633667,261.361053 1174.451172,282.020935 1174.551392,302.678925 
	C1174.621216,317.090424 1172.780151,314.482391 1186.665771,314.908691 
	C1190.758667,315.034332 1192.262695,313.706635 1192.199707,309.500549 
	C1191.997925,296.008942 1192.826050,282.463623 1191.887573,269.034668 
	C1191.249756,259.908875 1195.732300,255.654037 1202.773193,252.348846 
	C1204.424316,251.573761 1206.134888,250.854111 1207.891968,250.387054 
	C1220.874146,246.936066 1234.851929,251.426834 1233.999756,269.856812 
	C1233.515503,280.330231 1233.915894,290.844452 1233.913086,301.340302 
	C1233.909546,314.741425 1234.620605,315.336243 1248.057861,314.910522 
	C1251.336548,314.806610 1252.394897,313.755096 1252.195190,310.443848 
	C1251.764893,303.309845 1251.721558,296.152527 1251.862427,289.026306 
	C1253.918945,290.197296 1255.972412,291.046753 1257.293945,292.542847 
	C1269.506470,306.368256 1281.101562,320.773987 1293.822510,334.108154 
	C1317.152832,358.563202 1341.370117,382.173615 1367.885742,403.213959 
	C1383.374756,415.504547 1399.373901,427.164581 1415.358765,438.813049 
	C1423.800659,444.964813 1432.586792,450.669037 1441.424805,456.247101 
	C1456.453003,465.732086 1471.405273,475.378784 1486.842773,484.160583 
	C1499.403564,491.305847 1512.668945,497.204834 1525.521118,503.851471 
	C1527.925293,505.094757 1529.852661,507.260162 1532.000000,509.000000 
	C1392.978027,509.000000 1253.955933,509.000000 1114.331299,508.693817 
	C1107.330688,503.849884 1104.212891,495.469147 1095.902344,493.172241 
	C1094.699219,487.233795 1090.308105,483.729095 1086.109009,479.975586 
	C1084.603882,478.630188 1083.989746,476.335541 1082.617065,474.785767 
	C1077.680176,469.211578 1072.576294,463.785706 1067.583252,458.260620 
	C1066.931519,457.539429 1066.635498,456.508484 1066.042969,455.720154 
	C1061.217407,449.300201 1057.020386,442.216675 1051.299561,436.722656 
	C1046.900879,432.498352 1043.947144,427.694611 1040.740967,422.782227 
	C1036.704834,416.598206 1032.913696,409.930115 1027.595825,405.005646 
	C1023.042847,400.789612 1020.497009,395.823578 1017.394165,390.859894 
	C1014.663513,386.491730 1010.877502,382.784790 1007.577148,378.769714 
	C1007.063171,378.144440 1006.599915,377.463318 1006.204651,376.756866 
	C1003.750122,372.369965 1001.584595,367.793335 998.806580,363.623810 
	C996.308167,359.873749 992.649963,356.855896 990.391724,352.995392 
	C986.775940,346.814362 984.313782,339.950134 980.611145,333.830109 
	C973.966919,322.847839 966.763794,312.203735 959.993408,301.174438 
	C960.930908,300.258636 961.683594,299.601746 962.405151,298.912231 
	C968.132263,293.439301 968.128357,293.352264 962.044800,288.492889 
	C960.483276,287.245605 958.803223,286.122223 957.374084,284.738953 
	C954.814453,282.261475 952.860718,282.548523 950.194458,284.986633 
	C930.817200,302.706177 903.897156,302.520447 884.762268,284.726532 
	C866.878784,268.096222 865.484314,238.080978 881.705750,218.937973 
	C898.238647,199.427414 925.932007,196.120773 945.841003,211.280243 
	C954.442200,217.829514 954.442200,217.829514 962.957214,211.051727 
	C968.246948,206.841125 968.323181,206.521759 963.446655,202.095551 
	C946.463928,186.681229 926.480713,181.831039 904.111084,184.999817 
	C903.499451,182.705490 903.106750,180.739929 902.283264,178.975403 
	C901.333252,176.939468 899.533081,175.217529 898.923706,173.120468 
	C896.842773,165.959717 896.053772,158.270370 893.010925,151.584091 
	C889.772339,144.467773 885.013916,138.105804 885.867310,129.715164 
	C885.930176,129.097107 885.723999,128.334793 885.381531,127.810097 
	C880.961792,121.037689 877.030457,114.156364 877.767334,105.559792 
	C877.870117,104.359665 876.344666,103.078178 875.766296,101.750168 
	C874.269348,98.312988 872.483276,94.932152 871.547607,91.337517 
	C870.340698,86.701256 870.290833,81.748222 868.937622,77.169571 
	C867.230103,71.392319 864.483704,65.929298 862.606567,60.192917 
	C860.814636,54.717041 863.770630,48.064148 858.508362,43.333015 
	C858.141724,43.003395 858.804993,41.708843 858.654114,40.927757 
	C857.974609,37.410419 857.283508,33.887878 856.378540,30.424170 
	C855.777893,28.124813 854.412231,25.977175 854.088623,23.663757 
	C853.446167,19.070709 853.554688,14.367856 852.833374,9.792271 
	C852.359558,6.787311 850.976074,3.925770 850.000000,0.999998 
M1060.026978,292.467133 
	C1067.572021,275.458099 1063.892700,256.208893 1050.843384,244.420090 
	C1037.439209,232.310745 1017.509033,230.092056 1001.653442,238.944244 
	C986.203308,247.570084 978.501892,264.886810 981.961060,283.222931 
	C985.121704,299.976746 998.916626,312.555511 1017.525635,315.652191 
	C1033.603394,318.327606 1050.714966,309.201233 1060.026978,292.467133 
M1078.776123,255.500229 
	C1078.775757,271.319550 1078.777100,287.138855 1078.774414,302.958160 
	C1078.772461,314.949768 1078.772095,314.785156 1090.629517,314.928558 
	C1094.969360,314.980988 1096.455566,313.634247 1096.379517,309.217743 
	C1096.144409,295.567291 1096.875854,281.876221 1096.077881,268.268585 
	C1095.611694,260.315857 1099.194214,256.230957 1105.419312,253.150192 
	C1107.498169,252.121338 1109.635864,251.119034 1111.854858,250.480148 
	C1124.697510,246.782379 1139.045288,251.471329 1138.122070,269.601990 
	C1137.487793,282.058411 1137.825806,294.578522 1138.168823,307.058105 
	C1138.234253,309.439240 1139.901855,313.303345 1141.615479,313.805786 
	C1145.631958,314.983398 1150.127686,314.696442 1154.419556,314.592010 
	C1155.117554,314.575012 1156.356812,312.452759 1156.345581,311.313446 
	C1156.196411,296.171478 1155.889404,281.030853 1155.576538,265.890808 
	C1155.429565,258.778107 1154.030396,252.054993 1149.634399,246.168671 
	C1139.825562,233.034637 1119.035522,229.533875 1103.512207,238.512268 
	C1101.392822,239.738052 1099.323975,241.051392 1096.572876,242.724991 
	C1095.390015,233.499008 1088.800903,234.851151 1082.808105,234.791199 
	C1079.744507,234.760544 1078.689209,236.098892 1078.751221,239.014984 
	C1078.860840,244.174683 1078.778198,249.338455 1078.776123,255.500229 
z"/>
<path fill="#2c589e" opacity="1.000000" stroke="none" 
	d="
M1211.994507,233.824707 
	C1210.236328,230.094528 1208.758179,226.199051 1206.671143,222.663055 
	C1198.067993,208.086807 1188.871094,193.846283 1180.671631,179.050537 
	C1171.911255,163.242554 1163.453369,147.212723 1155.906982,130.799957 
	C1146.402588,110.129028 1137.279175,89.226990 1129.257202,67.947426 
	C1122.296509,49.482998 1117.060547,30.365797 1111.162354,11.505786 
	C1110.180420,8.366061 1109.709839,5.066417 1109.001465,1.420341 
	C1173.020874,1.000000 1237.041870,1.000000 1301.552734,1.376139 
	C1305.125732,9.364519 1308.566895,16.868937 1309.088745,25.250992 
	C1309.108765,25.573997 1309.232544,25.909124 1309.379639,26.202843 
	C1313.738525,34.907291 1318.112793,43.604122 1322.471436,52.308769 
	C1327.405518,62.162460 1332.301514,72.035271 1337.262451,81.875381 
	C1340.529663,88.356117 1344.073853,94.704918 1347.128418,101.282585 
	C1349.103760,105.536690 1352.645264,108.425697 1355.228149,111.991692 
	C1360.850830,119.754768 1363.796875,129.304871 1371.101074,136.131668 
	C1373.439453,138.317245 1374.949829,141.412186 1376.739868,144.155777 
	C1379.899780,148.998550 1379.791260,156.335449 1387.268799,157.884552 
	C1387.539551,157.940659 1387.794312,158.298843 1387.966431,158.572891 
	C1390.583252,162.741730 1393.055420,167.008301 1395.823364,171.073685 
	C1399.265503,176.129379 1402.916260,181.045242 1406.573364,185.949539 
	C1406.998779,186.520142 1408.176392,186.474823 1408.765259,186.989594 
	C1410.263794,188.299576 1411.708862,189.693298 1413.015869,191.192474 
	C1413.963501,192.279434 1414.471558,193.780930 1415.495483,194.764374 
	C1419.250610,198.370941 1423.348755,201.639053 1426.930908,205.402710 
	C1432.953979,211.731262 1438.513428,218.504776 1444.607178,224.760635 
	C1447.414917,227.642838 1450.985840,229.732773 1447.558472,234.361023 
	C1447.368286,234.617966 1448.033203,235.508163 1448.135742,236.410233 
	C1445.449829,238.831116 1442.595215,240.670593 1440.536499,243.166611 
	C1439.373291,244.576859 1438.776367,247.302933 1439.314453,248.993805 
	C1439.730469,250.300659 1442.215698,251.391769 1443.946533,251.729431 
	C1446.309204,252.190323 1448.829346,251.844452 1451.856934,251.844452 
	C1451.856934,262.849579 1451.725098,273.298309 1451.911743,283.741364 
	C1452.006592,289.045044 1452.245972,294.416656 1453.192017,299.617065 
	C1454.418457,306.357544 1458.041626,311.678070 1464.939087,313.923004 
	C1472.465088,316.372528 1480.068115,315.966583 1487.533325,313.687500 
	C1489.105347,313.207581 1491.555908,311.440338 1491.473267,310.442352 
	C1491.153687,306.579132 1490.390381,302.600891 1488.823853,299.098572 
	C1488.429321,298.216095 1484.401123,298.662933 1482.109741,298.981049 
	C1475.738647,299.865631 1470.391113,297.751068 1470.231323,292.963776 
	C1469.778442,279.390015 1470.072510,265.791290 1470.072510,252.063721 
	C1472.434570,252.063721 1474.716309,252.063721 1477.003662,252.465118 
	C1477.793335,254.749268 1478.097900,257.161865 1479.465698,258.399384 
	C1481.952759,260.649689 1485.190308,262.043091 1487.906128,264.072968 
	C1499.289673,272.581238 1510.593140,281.196259 1521.938354,289.755768 
	C1522.459229,290.148743 1523.117676,290.353638 1523.682007,290.695557 
	C1529.222290,294.051849 1534.893311,297.215515 1540.256348,300.835144 
	C1546.620239,305.130188 1552.717529,309.820679 1558.932617,314.336426 
	C1559.065063,314.432587 1559.225586,314.490875 1559.375366,314.561829 
	C1568.643311,318.953461 1577.924927,323.316437 1587.171875,327.752014 
	C1590.097168,329.155334 1592.877686,330.863739 1595.815796,332.236847 
	C1601.509644,334.897888 1607.268188,337.420197 1613.000000,340.000000 
	C1613.000000,396.234619 1613.000000,452.469208 1613.000000,509.000000 
	C1586.313110,509.000000 1559.625244,509.000000 1532.468628,509.000000 
	C1529.852661,507.260162 1527.925293,505.094757 1525.521118,503.851471 
	C1512.668945,497.204834 1499.403564,491.305847 1486.842773,484.160583 
	C1471.405273,475.378784 1456.453003,465.732086 1441.424805,456.247101 
	C1432.586792,450.669037 1423.800659,444.964813 1415.358765,438.813049 
	C1399.373901,427.164581 1383.374756,415.504547 1367.885742,403.213959 
	C1341.370117,382.173615 1317.152832,358.563202 1293.822510,334.108154 
	C1281.101562,320.773987 1269.506470,306.368256 1257.293945,292.542847 
	C1255.972412,291.046753 1253.918945,290.197296 1251.774414,288.564880 
	C1251.249390,279.134155 1251.508911,270.164856 1250.965576,261.244476 
	C1250.362793,251.350067 1245.476807,243.789658 1236.893677,238.581223 
	C1229.138550,233.875336 1220.743652,233.052643 1211.994507,233.824707 
M1321.288574,236.134247 
	C1313.589233,235.519547 1305.669922,233.454422 1298.234619,234.581680 
	C1280.915771,237.207397 1268.365112,252.270096 1266.590454,270.375580 
	C1264.771973,288.927460 1274.521240,305.423370 1291.413574,312.376831 
	C1308.051025,319.225342 1328.083252,314.739288 1338.987427,301.942108 
	C1341.027344,299.548004 1340.867432,297.947266 1339.184692,295.462982 
	C1336.593018,291.636810 1334.384521,291.146484 1330.280884,293.803772 
	C1320.269165,300.286957 1309.375244,302.177826 1297.951660,297.569550 
	C1290.716919,294.651123 1285.817139,287.790497 1286.226685,281.168091 
	C1288.187622,281.168091 1290.173462,281.169891 1292.159302,281.167847 
	C1306.808472,281.152649 1321.458984,281.245911 1336.106201,281.072052 
	C1342.814697,280.992401 1346.234131,277.163696 1345.681641,270.500671 
	C1344.365601,254.630951 1337.110840,242.777710 1321.288574,236.134247 
M1422.574097,254.235184 
	C1423.306641,253.328568 1423.957275,252.337997 1424.785889,251.529892 
	C1428.263916,248.137924 1428.072510,245.540100 1424.040405,242.357056 
	C1416.533203,236.430710 1408.353516,233.982819 1398.767212,233.847168 
	C1370.537964,233.447708 1350.624146,261.295044 1360.323120,288.703217 
	C1369.808105,315.506561 1399.644897,323.481812 1421.333374,309.050873 
	C1429.938599,303.325226 1429.824219,303.002258 1423.508911,294.703552 
	C1420.624146,290.912903 1418.653076,291.008789 1415.203857,294.037140 
	C1407.957886,300.398987 1396.488037,301.190491 1388.058838,296.503784 
	C1375.634277,289.595642 1371.392334,273.338196 1378.927734,261.508820 
	C1386.714233,249.285339 1403.702637,246.149078 1415.252686,254.991379 
	C1417.868896,256.994202 1419.905640,258.363159 1422.574097,254.235184 
z"/>
<path fill="#2c589e" opacity="1.000000" stroke="none" 
	d="
M959.794189,301.418335 
	C966.763794,312.203735 973.966919,322.847839 980.611145,333.830109 
	C984.313782,339.950134 986.775940,346.814362 990.391724,352.995392 
	C992.649963,356.855896 996.308167,359.873749 998.806580,363.623810 
	C1001.584595,367.793335 1003.750122,372.369965 1006.204651,376.756866 
	C1006.599915,377.463318 1007.063171,378.144440 1007.577148,378.769714 
	C1010.877502,382.784790 1014.663513,386.491730 1017.394165,390.859894 
	C1020.497009,395.823578 1023.042847,400.789612 1027.595825,405.005646 
	C1032.913696,409.930115 1036.704834,416.598206 1040.740967,422.782227 
	C1043.947144,427.694611 1046.900879,432.498352 1051.299561,436.722656 
	C1057.020386,442.216675 1061.217407,449.300201 1066.042969,455.720154 
	C1066.635498,456.508484 1066.931519,457.539429 1067.583252,458.260620 
	C1072.576294,463.785706 1077.680176,469.211578 1082.617065,474.785767 
	C1083.989746,476.335541 1084.603882,478.630188 1086.109009,479.975586 
	C1090.308105,483.729095 1094.699219,487.233795 1095.902344,493.172241 
	C1104.212891,495.469147 1107.330688,503.849884 1113.864258,508.693817 
	C1032.312500,509.000000 950.624878,509.000000 868.384644,508.654114 
	C862.552063,500.327484 857.232117,492.372894 852.000916,484.360321 
	C842.103333,469.200317 832.155273,454.071533 822.436340,438.797424 
	C818.259277,432.232788 814.672974,425.295197 810.687988,418.604675 
	C806.375061,411.363708 801.650330,404.356995 797.574707,396.988403 
	C792.031250,386.966064 786.791138,376.768311 781.672668,366.520020 
	C770.023499,343.195526 758.573303,319.771576 746.881165,296.468903 
	C745.972534,294.657928 743.805115,293.478546 742.149902,291.541565 
	C742.066223,279.767639 742.048157,268.457703 742.045837,257.147797 
	C742.041260,235.026657 742.036377,212.905502 742.057556,190.784393 
	C742.060242,188.016693 742.254639,185.203873 738.287476,185.180695 
	C733.858643,185.154816 729.429504,185.174759 724.036621,185.174759 
	C724.036621,201.494217 724.036621,217.246475 723.672363,232.953018 
	C722.200684,232.026443 720.537109,231.370590 720.074951,230.228531 
	C716.836792,222.226746 713.680542,214.182953 710.818726,206.039948 
	C707.142517,195.579712 703.685730,185.039993 700.284851,174.486069 
	C697.128540,164.691071 694.021912,154.875137 691.168152,144.989105 
	C688.592957,136.068207 686.383179,127.041672 684.023987,118.058647 
	C679.934387,102.487114 675.630615,86.967209 671.847290,71.321518 
	C669.275879,60.688011 667.262878,49.908649 665.320007,39.136841 
	C663.032959,26.457098 661.091370,13.715039 659.000000,1.000001 
	C722.354248,1.000000 785.708435,1.000000 849.531372,0.999998 
	C850.976074,3.925770 852.359558,6.787311 852.833374,9.792271 
	C853.554688,14.367856 853.446167,19.070709 854.088623,23.663757 
	C854.412231,25.977175 855.777893,28.124813 856.378540,30.424170 
	C857.283508,33.887878 857.974609,37.410419 858.654114,40.927757 
	C858.804993,41.708843 858.141724,43.003395 858.508362,43.333015 
	C863.770630,48.064148 860.814636,54.717041 862.606567,60.192917 
	C864.483704,65.929298 867.230103,71.392319 868.937622,77.169571 
	C870.290833,81.748222 870.340698,86.701256 871.547607,91.337517 
	C872.483276,94.932152 874.269348,98.312988 875.766296,101.750168 
	C876.344666,103.078178 877.870117,104.359665 877.767334,105.559792 
	C877.030457,114.156364 880.961792,121.037689 885.381531,127.810097 
	C885.723999,128.334793 885.930176,129.097107 885.867310,129.715164 
	C885.013916,138.105804 889.772339,144.467773 893.010925,151.584091 
	C896.053772,158.270370 896.842773,165.959717 898.923706,173.120468 
	C899.533081,175.217529 901.333252,176.939468 902.283264,178.975403 
	C903.106750,180.739929 903.499451,182.705490 903.796143,185.190063 
	C893.006653,188.066437 883.247803,192.249969 875.268860,199.383911 
	C859.967224,213.065170 851.563904,230.110580 851.983948,251.054337 
	C852.145447,259.109955 853.095764,266.950195 856.329773,274.417480 
	C860.541992,284.143646 866.139099,292.626495 874.289612,299.805939 
	C884.728394,309.001038 896.733276,314.088318 910.110107,315.678986 
	C928.476746,317.862946 945.098450,312.676270 959.794189,301.418335 
M778.621765,282.227600 
	C780.303528,281.875183 781.983276,281.228149 783.667419,281.216309 
	C798.990906,281.108582 814.317688,280.943695 829.637878,281.170959 
	C835.186462,281.253265 838.681335,276.600403 838.650452,271.475372 
	C838.633789,268.703094 837.978271,265.912964 837.421997,263.169159 
	C834.034607,246.462402 817.968262,233.535919 798.551697,233.708878 
	C769.483276,233.967789 753.686951,261.677643 760.541687,285.664337 
	C769.489441,316.974792 808.187866,325.691711 831.247131,302.441498 
	C834.674255,298.985901 833.003052,296.964905 831.060486,294.126007 
	C828.827942,290.863373 826.681824,291.569153 823.952820,293.449463 
	C816.859741,298.336761 808.912476,300.360657 800.319946,299.930084 
	C789.574158,299.391510 781.703125,293.280579 778.621765,282.227600 
z"/>
<path fill="#2c589e" opacity="1.000000" stroke="none" 
	d="
M290.000000,509.000000 
	C193.711060,509.000000 97.422112,509.000000 1.066586,509.000000 
	C1.066586,339.789124 1.066586,170.578186 1.066586,1.000000 
	C50.354160,1.000000 99.709229,1.000000 149.532776,1.442886 
	C150.913330,11.134190 151.564926,20.417711 152.805252,29.621895 
	C154.266205,40.463108 156.189468,51.243576 157.997070,62.036186 
	C161.674286,83.991646 165.355957,105.946625 169.139725,127.883873 
	C171.254562,140.145035 173.577789,152.370270 175.347504,164.605164 
	C167.334656,165.034927 159.517868,164.379166 152.280991,166.125992 
	C135.149002,170.261246 126.416840,187.879303 129.030426,205.213623 
	C130.112030,212.387329 129.611679,213.785385 123.811028,218.189911 
	C102.234489,234.573334 102.722397,263.846283 124.587952,279.085663 
	C126.626907,280.506744 129.450256,282.898743 129.423492,284.805054 
	C129.333359,291.225067 127.590416,297.468109 129.173874,304.115051 
	C130.796570,310.926727 132.967178,317.216248 137.827805,322.320251 
	C148.329269,333.347534 161.525620,334.660004 175.664734,332.853729 
	C177.323868,332.641785 179.601868,333.390991 180.845657,334.518799 
	C185.038330,338.320404 188.522919,342.968719 192.953323,346.428955 
	C202.968384,354.250977 214.206924,356.161438 226.631271,351.819153 
	C228.246414,354.093689 229.921738,356.009888 230.739594,358.240448 
	C234.573166,368.696136 238.002197,379.301270 241.892670,389.734833 
	C247.576050,404.976654 253.502853,420.128174 259.379761,435.297272 
	C262.623474,443.669769 265.841980,452.056274 269.309845,460.336823 
	C276.118622,476.594727 283.093719,492.782928 290.000000,509.000000 
z"/>
<path fill="#2c589e" opacity="1.000000" stroke="none" 
	d="
M742.222717,292.005615 
	C743.805115,293.478546 745.972534,294.657928 746.881165,296.468903 
	C758.573303,319.771576 770.023499,343.195526 781.672668,366.520020 
	C786.791138,376.768311 792.031250,386.966064 797.574707,396.988403 
	C801.650330,404.356995 806.375061,411.363708 810.687988,418.604675 
	C814.672974,425.295197 818.259277,432.232788 822.436340,438.797424 
	C832.155273,454.071533 842.103333,469.200317 852.000916,484.360321 
	C857.232117,492.372894 862.552063,500.327484 867.916016,508.654114 
	C803.645752,509.000000 739.291565,509.000000 674.316528,508.701508 
	C668.975403,501.955078 663.299561,496.167511 660.625854,488.334259 
	C659.359314,484.623718 657.711853,480.987762 655.791687,477.568054 
	C652.470642,471.653351 648.796753,465.936981 645.281921,460.130768 
	C642.911316,456.214813 640.333618,452.403259 638.250977,448.338837 
	C634.833435,441.668976 631.902954,434.749176 628.474731,428.085205 
	C623.934204,419.259308 618.831482,410.714661 614.494812,401.794189 
	C610.631592,393.847778 607.591248,385.505402 603.971863,377.434601 
	C602.176697,373.431427 599.587158,369.774811 597.901550,365.734192 
	C594.657776,357.958252 592.876099,349.353333 588.509399,342.320923 
	C583.181213,333.740173 580.936707,324.573883 579.404480,314.980652 
	C583.671448,315.297363 585.090881,313.648529 585.044128,309.709137 
	C584.874207,295.378815 584.776123,281.040131 585.136841,266.716858 
	C585.217651,263.509277 586.549561,259.772247 588.552917,257.282867 
	C593.853455,250.696625 601.083496,248.886536 609.242615,251.120728 
	C617.541504,253.393204 617.533752,253.423080 622.357117,246.361435 
	C623.014404,245.399017 623.626831,244.402908 624.329956,243.475403 
	C626.073059,241.175934 625.406067,239.560806 623.044434,238.233124 
	C616.410828,234.503830 609.229980,232.772690 601.884277,234.577332 
	C596.098267,235.998810 590.654175,238.811844 584.994629,241.031738 
	C584.053284,236.272430 580.603394,234.563293 575.310120,234.741684 
	C567.192810,235.015259 567.210693,234.788361 567.176941,243.022339 
	C567.120972,256.681976 567.028503,270.341492 566.624268,283.882141 
	C565.422180,282.441010 564.265808,281.224854 563.720642,279.778351 
	C561.293335,273.337372 559.206177,266.765228 556.678894,260.365753 
	C554.132141,253.916962 550.658447,247.775055 550.066650,240.712280 
	C549.788452,237.392166 548.285522,235.887268 545.012207,235.987228 
	C544.990112,235.990173 545.021118,235.957474 545.102722,235.578918 
	C544.402466,230.181519 543.693848,225.149857 542.818542,220.147369 
	C541.900879,214.902679 540.823425,209.685974 540.077087,204.262909 
	C547.658813,200.933258 547.973145,190.198746 540.871033,186.942612 
	C538.379883,185.800522 535.124390,186.325897 532.008057,185.781647 
	C530.283691,182.182632 528.694336,178.923157 527.295593,175.583862 
	C526.810608,174.426102 526.750000,173.076920 526.578491,171.803986 
	C525.919861,166.916321 526.244873,161.645676 524.476257,157.205734 
	C519.507751,144.733032 518.069153,131.436386 514.475586,118.665695 
	C513.808411,116.294617 513.846313,113.731247 513.253906,111.331917 
	C510.922699,101.890533 508.161530,92.544395 506.151337,83.037849 
	C504.257996,74.084137 504.070526,64.680908 501.431213,55.992245 
	C495.963409,37.992199 495.396484,19.277847 492.000000,1.000000 
	C547.354248,1.000000 602.708435,1.000000 658.531372,1.000001 
	C661.091370,13.715039 663.032959,26.457098 665.320007,39.136841 
	C667.262878,49.908649 669.275879,60.688011 671.847290,71.321518 
	C675.630615,86.967209 679.934387,102.487114 684.023987,118.058647 
	C686.383179,127.041672 688.592957,136.068207 691.168152,144.989105 
	C694.021912,154.875137 697.128540,164.691071 700.284851,174.486069 
	C703.685730,185.039993 707.142517,195.579712 710.818726,206.039948 
	C713.680542,214.182953 716.836792,222.226746 720.074951,230.228531 
	C720.537109,231.370590 722.200684,232.026443 723.770813,233.412857 
	C724.255676,256.720215 724.283447,279.522064 724.297729,302.323883 
	C724.305176,314.214813 725.720093,315.468201 737.573975,314.913757 
	C741.068237,314.750305 742.171021,313.295502 742.102905,309.969788 
	C741.980347,303.985046 742.165894,297.994019 742.222717,292.005615 
M649.760803,305.753876 
	C665.166443,318.109161 682.745728,319.379883 698.310974,309.263306 
	C707.221313,303.472076 707.195862,303.033691 700.799011,294.697144 
	C698.262573,291.391693 696.442566,290.594757 692.888000,293.698303 
	C683.464417,301.926300 668.949219,301.266937 660.180420,292.674744 
	C650.764893,283.448914 649.960205,268.897644 658.301147,258.690491 
	C665.961365,249.316406 681.164551,247.179825 691.380005,254.041733 
	C697.026611,257.834625 697.025818,257.833984 701.268127,252.494888 
	C701.993225,251.582397 702.684631,250.638168 703.467041,249.777191 
	C705.594849,247.435577 705.265564,245.579269 702.872498,243.473892 
	C692.579834,234.418427 680.600830,231.440079 667.551086,234.712891 
	C651.851501,238.650253 641.019897,248.591202 636.963440,264.465973 
	C632.928589,280.256073 637.222595,294.053741 649.760803,305.753876 
z"/>
<path fill="#2c589e" opacity="1.000000" stroke="none" 
	d="
M175.807129,164.611694 
	C173.577789,152.370270 171.254562,140.145035 169.139725,127.883873 
	C165.355957,105.946625 161.674286,83.991646 157.997070,62.036186 
	C156.189468,51.243576 154.266205,40.463108 152.805252,29.621895 
	C151.564926,20.417711 150.913330,11.134190 150.000626,1.442886 
	C214.354233,1.000000 278.708466,1.000000 343.548553,1.394285 
	C345.525940,8.905875 347.152771,15.998104 348.477509,23.146313 
	C350.504120,34.081509 349.864380,45.289749 353.514008,56.179234 
	C356.385132,64.745880 356.516266,74.215088 358.041229,83.253571 
	C359.309021,90.767929 360.810303,98.243462 362.256744,105.726807 
	C362.837738,108.732704 363.573395,111.708366 364.194794,114.706879 
	C365.469086,120.855904 366.513611,127.060669 368.022858,133.150772 
	C369.795349,140.303177 373.390137,147.328476 373.538391,154.464066 
	C373.675781,161.078888 378.991364,166.708084 376.275208,173.472656 
	C381.172058,179.171494 381.980042,186.127838 382.912476,193.239487 
	C383.539795,198.023849 385.554871,202.630005 386.989471,207.303467 
	C387.950989,210.435913 389.128662,213.508835 389.952545,216.675278 
	C391.495972,222.607224 392.852783,228.587723 394.265076,234.943085 
	C393.972900,243.587051 392.784882,251.931107 393.627655,260.064728 
	C395.284149,276.052185 403.390533,289.034149 414.917847,300.201721 
	C415.305450,301.921875 415.702148,303.383270 416.355469,304.719177 
	C417.062408,306.164795 418.209442,307.411041 418.814819,308.887604 
	C420.997192,314.210968 423.004761,319.605652 425.132172,324.951996 
	C426.708496,328.913361 428.506439,332.791412 429.959259,336.795959 
	C432.297760,343.241913 434.285889,349.816742 436.689758,356.236877 
	C440.015869,365.120178 446.601868,372.748535 446.881287,382.817413 
	C446.908386,383.795441 447.087280,384.858093 447.515656,385.722992 
	C454.598358,400.021423 461.734741,414.293213 468.848053,428.576508 
	C469.214996,429.313324 469.806641,430.125885 469.747070,430.858734 
	C469.084991,439.005676 474.330231,445.053741 477.258911,451.876892 
	C481.475098,461.699554 486.169708,471.316803 490.659241,481.022125 
	C492.457062,484.908539 493.932434,488.988251 496.123779,492.638214 
	C499.491150,498.247070 503.349792,503.560974 507.000000,509.000000 
	C434.979095,509.000000 362.958221,509.000000 290.468658,509.000000 
	C283.093719,492.782928 276.118622,476.594727 269.309845,460.336823 
	C265.841980,452.056274 262.623474,443.669769 259.379761,435.297272 
	C253.502853,420.128174 247.576050,404.976654 241.892670,389.734833 
	C238.002197,379.301270 234.573166,368.696136 230.739594,358.240448 
	C229.921738,356.009888 228.246414,354.093689 226.917603,351.593781 
	C231.105377,348.254089 235.628403,345.685791 239.492783,342.353607 
	C242.959030,339.364777 245.102203,333.957184 248.925262,332.507477 
	C253.000229,330.962250 258.361786,333.123413 263.161072,333.118744 
	C280.871887,333.101562 293.953888,322.873291 297.444427,305.647827 
	C298.610321,299.894104 298.481171,293.661346 297.717529,287.807587 
	C297.187714,283.746521 298.421265,281.900848 301.400238,279.769257 
	C310.959869,272.928925 317.924683,264.165100 319.045898,252.024872 
	C320.487183,236.419022 312.793976,225.277527 300.643158,216.672882 
	C298.072144,214.852203 297.064270,213.298553 297.641205,209.804733 
	C299.567230,198.141830 298.685547,186.681519 290.989197,177.015564 
	C281.491333,165.087082 268.419617,162.326599 254.119980,164.449585 
	C249.704697,165.105087 246.785629,164.643921 244.723129,160.522812 
	C243.995895,159.069748 242.733337,157.852432 241.591919,156.643890 
	C231.819351,146.296692 220.293365,140.614655 205.777878,144.103745 
	C195.218826,146.641815 187.529205,153.423965 181.429504,162.119934 
	C179.970490,164.199966 178.619675,165.883194 175.807129,164.611694 
z"/>
<path fill="#2c589e" opacity="1.000000" stroke="none" 
	d="
M394.287231,234.548019 
	C392.852783,228.587723 391.495972,222.607224 389.952545,216.675278 
	C389.128662,213.508835 387.950989,210.435913 386.989471,207.303467 
	C385.554871,202.630005 383.539795,198.023849 382.912476,193.239487 
	C381.980042,186.127838 381.172058,179.171494 376.275208,173.472656 
	C378.991364,166.708084 373.675781,161.078888 373.538391,154.464066 
	C373.390137,147.328476 369.795349,140.303177 368.022858,133.150772 
	C366.513611,127.060669 365.469086,120.855904 364.194794,114.706879 
	C363.573395,111.708366 362.837738,108.732704 362.256744,105.726807 
	C360.810303,98.243462 359.309021,90.767929 358.041229,83.253571 
	C356.516266,74.215088 356.385132,64.745880 353.514008,56.179234 
	C349.864380,45.289749 350.504120,34.081509 348.477509,23.146313 
	C347.152771,15.998104 345.525940,8.905875 344.017212,1.394285 
	C393.020905,1.000000 442.041779,1.000000 491.531342,1.000000 
	C495.396484,19.277847 495.963409,37.992199 501.431213,55.992245 
	C504.070526,64.680908 504.257996,74.084137 506.151337,83.037849 
	C508.161530,92.544395 510.922699,101.890533 513.253906,111.331917 
	C513.846313,113.731247 513.808411,116.294617 514.475586,118.665695 
	C518.069153,131.436386 519.507751,144.733032 524.476257,157.205734 
	C526.244873,161.645676 525.919861,166.916321 526.578491,171.803986 
	C526.750000,173.076920 526.810608,174.426102 527.295593,175.583862 
	C528.694336,178.923157 530.283691,182.182632 531.801514,186.057892 
	C527.012573,190.146332 525.487671,194.369217 527.337585,199.013382 
	C529.125916,203.502991 533.250549,205.302368 539.815796,204.457031 
	C540.823425,209.685974 541.900879,214.902679 542.818542,220.147369 
	C543.693848,225.149857 544.402466,230.181519 544.743958,235.350555 
	C540.181824,235.276627 536.056396,235.104507 531.939514,234.811890 
	C528.659485,234.578720 527.558350,236.103836 527.567688,239.256378 
	C527.634949,261.920258 527.556213,284.584595 527.640137,307.248383 
	C527.661133,312.915527 529.522095,314.595856 535.204956,314.827698 
	C536.868713,314.895569 538.545593,314.736023 540.202332,314.864105 
	C543.796936,315.141937 545.228760,313.726532 545.205566,309.972778 
	C545.053101,285.310516 545.071594,260.647247 545.034363,235.984283 
	C548.285522,235.887268 549.788452,237.392166 550.066650,240.712280 
	C550.658447,247.775055 554.132141,253.916962 556.678894,260.365753 
	C559.206177,266.765228 561.293335,273.337372 563.720642,279.778351 
	C564.265808,281.224854 565.422180,282.441010 566.710938,284.343750 
	C567.140686,291.074738 567.166626,297.225220 567.170288,303.375702 
	C567.177002,314.488373 567.171509,314.487183 578.016479,314.903656 
	C578.345459,314.916290 578.671265,315.011536 578.998596,315.068237 
	C580.936707,324.573883 583.181213,333.740173 588.509399,342.320923 
	C592.876099,349.353333 594.657776,357.958252 597.901550,365.734192 
	C599.587158,369.774811 602.176697,373.431427 603.971863,377.434601 
	C607.591248,385.505402 610.631592,393.847778 614.494812,401.794189 
	C618.831482,410.714661 623.934204,419.259308 628.474731,428.085205 
	C631.902954,434.749176 634.833435,441.668976 638.250977,448.338837 
	C640.333618,452.403259 642.911316,456.214813 645.281921,460.130768 
	C648.796753,465.936981 652.470642,471.653351 655.791687,477.568054 
	C657.711853,480.987762 659.359314,484.623718 660.625854,488.334259 
	C663.299561,496.167511 668.975403,501.955078 673.847900,508.701508 
	C618.645752,509.000000 563.291565,509.000000 507.468658,509.000000 
	C503.349792,503.560974 499.491150,498.247070 496.123779,492.638214 
	C493.932434,488.988251 492.457062,484.908539 490.659241,481.022125 
	C486.169708,471.316803 481.475098,461.699554 477.258911,451.876892 
	C474.330231,445.053741 469.084991,439.005676 469.747070,430.858734 
	C469.806641,430.125885 469.214996,429.313324 468.848053,428.576508 
	C461.734741,414.293213 454.598358,400.021423 447.515656,385.722992 
	C447.087280,384.858093 446.908386,383.795441 446.881287,382.817413 
	C446.601868,372.748535 440.015869,365.120178 436.689758,356.236877 
	C434.285889,349.816742 432.297760,343.241913 429.959259,336.795959 
	C428.506439,332.791412 426.708496,328.913361 425.132172,324.951996 
	C423.004761,319.605652 420.997192,314.210968 418.814819,308.887604 
	C418.209442,307.411041 417.062408,306.164795 416.355469,304.719177 
	C415.702148,303.383270 415.305450,301.921875 415.233459,300.328583 
	C417.257965,301.356079 418.813690,302.614044 420.436157,303.778961 
	C445.993622,322.129211 482.194824,319.401611 504.490753,297.592102 
	C507.565582,294.584351 508.182068,292.292969 504.250916,289.691406 
	C502.314087,288.409668 500.425659,286.968048 498.803833,285.315643 
	C495.660187,282.112701 493.339294,282.605682 490.046753,285.621216 
	C478.057526,296.601654 463.885895,300.434814 447.947937,296.846863 
	C428.319824,292.428192 415.074005,277.861786 411.529999,257.087463 
	C408.404266,238.765091 417.501709,219.172440 434.002197,208.690430 
	C449.531769,198.825180 470.244659,199.673431 485.740173,210.765854 
	C488.866730,213.004013 492.206116,216.960464 495.238800,216.771820 
	C498.558563,216.565308 501.560822,212.361725 504.840942,210.102646 
	C508.205536,207.785416 508.084686,205.831970 505.188751,203.021835 
	C485.564850,183.979355 455.874695,178.831543 431.093536,190.386230 
	C411.910461,199.330704 400.154877,214.492386 394.287231,234.548019 
z"/>
<path fill="#2c589e" opacity="1.000000" stroke="none" 
	d="
M1613.000000,339.531311 
	C1607.268188,337.420197 1601.509644,334.897888 1595.815796,332.236847 
	C1592.877686,330.863739 1590.097168,329.155334 1587.171875,327.752014 
	C1577.924927,323.316437 1568.643311,318.953461 1559.375366,314.561829 
	C1559.225586,314.490875 1559.065063,314.432587 1558.932617,314.336426 
	C1552.717529,309.820679 1546.620239,305.130188 1540.256348,300.835144 
	C1534.893311,297.215515 1529.222290,294.051849 1523.682007,290.695557 
	C1523.117676,290.353638 1522.459229,290.148743 1521.938354,289.755768 
	C1510.593140,281.196259 1499.289673,272.581238 1487.906128,264.072968 
	C1485.190308,262.043091 1481.952759,260.649689 1479.465698,258.399384 
	C1478.097900,257.161865 1477.793335,254.749268 1477.450928,252.379288 
	C1490.207153,251.581345 1489.302002,253.885620 1489.375244,239.749084 
	C1489.394043,236.119843 1488.106445,234.618240 1484.398682,234.782715 
	C1479.641602,234.993759 1474.867920,234.834000 1469.694214,234.834000 
	C1469.694214,227.242096 1469.800659,220.429352 1469.604004,213.625351 
	C1469.564819,212.269608 1468.366211,210.947388 1467.702148,209.609695 
	C1466.381714,210.584152 1464.871338,211.389038 1463.801636,212.587341 
	C1462.957397,213.532898 1462.822266,215.076141 1462.084961,216.158432 
	C1457.535278,222.837601 1452.904175,229.461349 1448.300049,236.103592 
	C1448.033203,235.508163 1447.368286,234.617966 1447.558472,234.361023 
	C1450.985840,229.732773 1447.414917,227.642838 1444.607178,224.760635 
	C1438.513428,218.504776 1432.953979,211.731262 1426.930908,205.402710 
	C1423.348755,201.639053 1419.250610,198.370941 1415.495483,194.764374 
	C1414.471558,193.780930 1413.963501,192.279434 1413.015869,191.192474 
	C1411.708862,189.693298 1410.263794,188.299576 1408.765259,186.989594 
	C1408.176392,186.474823 1406.998779,186.520142 1406.573364,185.949539 
	C1402.916260,181.045242 1399.265503,176.129379 1395.823364,171.073685 
	C1393.055420,167.008301 1390.583252,162.741730 1387.966431,158.572891 
	C1387.794312,158.298843 1387.539551,157.940659 1387.268799,157.884552 
	C1379.791260,156.335449 1379.899780,148.998550 1376.739868,144.155777 
	C1374.949829,141.412186 1373.439453,138.317245 1371.101074,136.131668 
	C1363.796875,129.304871 1360.850830,119.754768 1355.228149,111.991692 
	C1352.645264,108.425697 1349.103760,105.536690 1347.128418,101.282585 
	C1344.073853,94.704918 1340.529663,88.356117 1337.262451,81.875381 
	C1332.301514,72.035271 1327.405518,62.162460 1322.471436,52.308769 
	C1318.112793,43.604122 1313.738525,34.907291 1309.379639,26.202843 
	C1309.232544,25.909124 1309.108765,25.573997 1309.088745,25.250992 
	C1308.566895,16.868937 1305.125732,9.364519 1302.021362,1.376139 
	C1405.596802,1.000000 1509.193726,1.000000 1613.000000,1.000000 
	C1613.000000,113.687477 1613.000000,226.375076 1613.000000,339.531311 
z"/>
<path fill="#FCFDFE" opacity="1.000000" stroke="none" 
	d="
M959.993408,301.174469 
	C945.098450,312.676270 928.476746,317.862946 910.110107,315.678986 
	C896.733276,314.088318 884.728394,309.001038 874.289612,299.805939 
	C866.139099,292.626495 860.541992,284.143646 856.329773,274.417480 
	C853.095764,266.950195 852.145447,259.109955 851.983948,251.054337 
	C851.563904,230.110580 859.967224,213.065170 875.268860,199.383911 
	C883.247803,192.249969 893.006653,188.066437 903.824707,185.607697 
	C926.480713,181.831039 946.463928,186.681229 963.446655,202.095551 
	C968.323181,206.521759 968.246948,206.841125 962.957214,211.051727 
	C954.442200,217.829514 954.442200,217.829514 945.841003,211.280243 
	C925.932007,196.120773 898.238647,199.427414 881.705750,218.937973 
	C865.484314,238.080978 866.878784,268.096222 884.762268,284.726532 
	C903.897156,302.520447 930.817200,302.706177 950.194458,284.986633 
	C952.860718,282.548523 954.814453,282.261475 957.374084,284.738953 
	C958.803223,286.122223 960.483276,287.245605 962.044800,288.492889 
	C968.128357,293.352264 968.132263,293.439301 962.405151,298.912231 
	C961.683594,299.601746 960.930908,300.258636 959.993408,301.174469 
z"/>
<path fill="#FDFDFE" opacity="1.000000" stroke="none" 
	d="
M1059.872070,292.808350 
	C1050.714966,309.201233 1033.603394,318.327606 1017.525635,315.652191 
	C998.916626,312.555511 985.121704,299.976746 981.961060,283.222931 
	C978.501892,264.886810 986.203308,247.570084 1001.653442,238.944244 
	C1017.509033,230.092056 1037.439209,232.310745 1050.843384,244.420090 
	C1063.892700,256.208893 1067.572021,275.458099 1059.872070,292.808350 
M1034.938477,253.372162 
	C1033.726074,252.830551 1032.539917,252.217651 1031.296997,251.758469 
	C1020.672180,247.832962 1009.625244,251.004486 1003.207092,259.794067 
	C996.591431,268.854126 996.543335,281.091644 1003.089905,289.605469 
	C1010.021423,298.620087 1021.214905,301.954468 1031.642090,297.624573 
	C1040.301636,294.028625 1045.633057,287.243683 1046.634521,277.953156 
	C1047.711182,267.964478 1043.903687,259.712128 1034.938477,253.372162 
z"/>
<path fill="#FDFDFE" opacity="1.000000" stroke="none" 
	d="
M1078.776123,255.000381 
	C1078.778198,249.338455 1078.860840,244.174683 1078.751221,239.014984 
	C1078.689209,236.098892 1079.744507,234.760544 1082.808105,234.791199 
	C1088.800903,234.851151 1095.390015,233.499008 1096.572876,242.724991 
	C1099.323975,241.051392 1101.392822,239.738052 1103.512207,238.512268 
	C1119.035522,229.533875 1139.825562,233.034637 1149.634399,246.168671 
	C1154.030396,252.054993 1155.429565,258.778107 1155.576538,265.890808 
	C1155.889404,281.030853 1156.196411,296.171478 1156.345581,311.313446 
	C1156.356812,312.452759 1155.117554,314.575012 1154.419556,314.592010 
	C1150.127686,314.696442 1145.631958,314.983398 1141.615479,313.805786 
	C1139.901855,313.303345 1138.234253,309.439240 1138.168823,307.058105 
	C1137.825806,294.578522 1137.487793,282.058411 1138.122070,269.601990 
	C1139.045288,251.471329 1124.697510,246.782379 1111.854858,250.480148 
	C1109.635864,251.119034 1107.498169,252.121338 1105.419312,253.150192 
	C1099.194214,256.230957 1095.611694,260.315857 1096.077881,268.268585 
	C1096.875854,281.876221 1096.144409,295.567291 1096.379517,309.217743 
	C1096.455566,313.634247 1094.969360,314.980988 1090.629517,314.928558 
	C1078.772095,314.785156 1078.772461,314.949768 1078.774414,302.958160 
	C1078.777100,287.138855 1078.775757,271.319550 1078.776123,255.000381 
z"/>
<path fill="#FEFEFE" opacity="1.000000" stroke="none" 
	d="
M1211.618896,233.923584 
	C1220.743652,233.052643 1229.138550,233.875336 1236.893677,238.581223 
	C1245.476807,243.789658 1250.362793,251.350067 1250.965576,261.244476 
	C1251.508911,270.164856 1251.249390,279.134155 1251.431885,288.543304 
	C1251.721558,296.152527 1251.764893,303.309845 1252.195190,310.443848 
	C1252.394897,313.755096 1251.336548,314.806610 1248.057861,314.910522 
	C1234.620605,315.336243 1233.909546,314.741425 1233.913086,301.340302 
	C1233.915894,290.844452 1233.515503,280.330231 1233.999756,269.856812 
	C1234.851929,251.426834 1220.874146,246.936066 1207.891968,250.387054 
	C1206.134888,250.854111 1204.424316,251.573761 1202.773193,252.348846 
	C1195.732300,255.654037 1191.249756,259.908875 1191.887573,269.034668 
	C1192.826050,282.463623 1191.997925,296.008942 1192.199707,309.500549 
	C1192.262695,313.706635 1190.758667,315.034332 1186.665771,314.908691 
	C1172.780151,314.482391 1174.621216,317.090424 1174.551392,302.678925 
	C1174.451172,282.020935 1174.633667,261.361053 1174.438110,240.704437 
	C1174.395020,236.157486 1175.733643,234.563049 1180.402832,234.715942 
	C1189.152344,235.002365 1190.047119,235.290817 1192.481689,241.691208 
	C1198.731201,239.136719 1204.987183,236.579590 1211.618896,233.923584 
z"/>
<path fill="#FDFDFE" opacity="1.000000" stroke="none" 
	d="
M1321.644897,236.288910 
	C1337.110840,242.777710 1344.365601,254.630951 1345.681641,270.500671 
	C1346.234131,277.163696 1342.814697,280.992401 1336.106201,281.072052 
	C1321.458984,281.245911 1306.808472,281.152649 1292.159302,281.167847 
	C1290.173462,281.169891 1288.187622,281.168091 1286.226685,281.168091 
	C1285.817139,287.790497 1290.716919,294.651123 1297.951660,297.569550 
	C1309.375244,302.177826 1320.269165,300.286957 1330.280884,293.803772 
	C1334.384521,291.146484 1336.593018,291.636810 1339.184692,295.462982 
	C1340.867432,297.947266 1341.027344,299.548004 1338.987427,301.942108 
	C1328.083252,314.739288 1308.051025,319.225342 1291.413574,312.376831 
	C1274.521240,305.423370 1264.771973,288.927460 1266.590454,270.375580 
	C1268.365112,252.270096 1280.915771,237.207397 1298.234619,234.581680 
	C1305.669922,233.454422 1313.589233,235.519547 1321.644897,236.288910 
M1303.810791,249.891891 
	C1292.752197,251.870560 1285.954102,258.276062 1285.645386,267.128174 
	C1299.344238,267.128174 1313.035767,267.128174 1326.767700,267.128174 
	C1325.511841,256.134979 1317.348389,249.871857 1303.810791,249.891891 
z"/>
<path fill="#FCFDFE" opacity="1.000000" stroke="none" 
	d="
M1422.343628,254.521851 
	C1419.905640,258.363159 1417.868896,256.994202 1415.252686,254.991379 
	C1403.702637,246.149078 1386.714233,249.285339 1378.927734,261.508820 
	C1371.392334,273.338196 1375.634277,289.595642 1388.058838,296.503784 
	C1396.488037,301.190491 1407.957886,300.398987 1415.203857,294.037140 
	C1418.653076,291.008789 1420.624146,290.912903 1423.508911,294.703552 
	C1429.824219,303.002258 1429.938599,303.325226 1421.333374,309.050873 
	C1399.644897,323.481812 1369.808105,315.506561 1360.323120,288.703217 
	C1350.624146,261.295044 1370.537964,233.447708 1398.767212,233.847168 
	C1408.353516,233.982819 1416.533203,236.430710 1424.040405,242.357056 
	C1428.072510,245.540100 1428.263916,248.137924 1424.785889,251.529892 
	C1423.957275,252.337997 1423.306641,253.328568 1422.343628,254.521851 
z"/>
<path fill="#FDFDFE" opacity="1.000000" stroke="none" 
	d="
M1448.135742,236.410202 
	C1452.904175,229.461349 1457.535278,222.837601 1462.084961,216.158432 
	C1462.822266,215.076141 1462.957397,213.532898 1463.801636,212.587341 
	C1464.871338,211.389038 1466.381714,210.584152 1467.702148,209.609695 
	C1468.366211,210.947388 1469.564819,212.269608 1469.604004,213.625351 
	C1469.800659,220.429352 1469.694214,227.242096 1469.694214,234.834000 
	C1474.867920,234.834000 1479.641602,234.993759 1484.398682,234.782715 
	C1488.106445,234.618240 1489.394043,236.119843 1489.375244,239.749084 
	C1489.302002,253.885620 1490.207153,251.581345 1477.445190,251.977905 
	C1474.716309,252.063721 1472.434570,252.063721 1470.072510,252.063721 
	C1470.072510,265.791290 1469.778442,279.390015 1470.231323,292.963776 
	C1470.391113,297.751068 1475.738647,299.865631 1482.109741,298.981049 
	C1484.401123,298.662933 1488.429321,298.216095 1488.823853,299.098572 
	C1490.390381,302.600891 1491.153687,306.579132 1491.473267,310.442352 
	C1491.555908,311.440338 1489.105347,313.207581 1487.533325,313.687500 
	C1480.068115,315.966583 1472.465088,316.372528 1464.939087,313.923004 
	C1458.041626,311.678070 1454.418457,306.357544 1453.192017,299.617065 
	C1452.245972,294.416656 1452.006592,289.045044 1451.911743,283.741364 
	C1451.725098,273.298309 1451.856934,262.849579 1451.856934,251.844452 
	C1448.829346,251.844452 1446.309204,252.190323 1443.946533,251.729431 
	C1442.215698,251.391769 1439.730469,250.300659 1439.314453,248.993805 
	C1438.776367,247.302933 1439.373291,244.576859 1440.536499,243.166611 
	C1442.595215,240.670593 1445.449829,238.831116 1448.135742,236.410202 
z"/>
<path fill="#FDFDFE" opacity="1.000000" stroke="none" 
	d="
M778.650635,282.663055 
	C781.703125,293.280579 789.574158,299.391510 800.319946,299.930084 
	C808.912476,300.360657 816.859741,298.336761 823.952820,293.449463 
	C826.681824,291.569153 828.827942,290.863373 831.060486,294.126007 
	C833.003052,296.964905 834.674255,298.985901 831.247131,302.441498 
	C808.187866,325.691711 769.489441,316.974792 760.541687,285.664337 
	C753.686951,261.677643 769.483276,233.967789 798.551697,233.708878 
	C817.968262,233.535919 834.034607,246.462402 837.421997,263.169159 
	C837.978271,265.912964 838.633789,268.703094 838.650452,271.475372 
	C838.681335,276.600403 835.186462,281.253265 829.637878,281.170959 
	C814.317688,280.943695 798.990906,281.108582 783.667419,281.216309 
	C781.983276,281.228149 780.303528,281.875183 778.650635,282.663055 
M808.458984,267.520996 
	C812.215088,267.520996 815.971130,267.520996 819.773254,267.520996 
	C818.568054,256.371368 809.854797,249.629669 798.244751,249.782425 
	C789.282837,249.900360 778.326782,257.448578 778.588989,267.047791 
	C778.888367,267.171265 779.187134,267.401031 779.487244,267.402740 
	C788.815674,267.455811 798.144165,267.486633 808.458984,267.520996 
z"/>
<path fill="#FAFBFD" opacity="1.000000" stroke="none" 
	d="
M742.149902,291.541565 
	C742.165894,297.994019 741.980347,303.985046 742.102905,309.969788 
	C742.171021,313.295502 741.068237,314.750305 737.573975,314.913757 
	C725.720093,315.468201 724.305176,314.214813 724.297729,302.323883 
	C724.283447,279.522064 724.255676,256.720215 724.135010,233.458557 
	C724.036621,217.246475 724.036621,201.494217 724.036621,185.174759 
	C729.429504,185.174759 733.858643,185.154816 738.287476,185.180695 
	C742.254639,185.203873 742.060242,188.016693 742.057556,190.784393 
	C742.036377,212.905502 742.041260,235.026657 742.045837,257.147797 
	C742.048157,268.457703 742.066223,279.767639 742.149902,291.541565 
z"/>
<path fill="#FAFBFD" opacity="1.000000" stroke="none" 
	d="
M175.347504,164.605164 
	C178.619675,165.883194 179.970490,164.199966 181.429504,162.119934 
	C187.529205,153.423965 195.218826,146.641815 205.777878,144.103745 
	C220.293365,140.614655 231.819351,146.296692 241.591919,156.643890 
	C242.733337,157.852432 243.995895,159.069748 244.723129,160.522812 
	C246.785629,164.643921 249.704697,165.105087 254.119980,164.449585 
	C268.419617,162.326599 281.491333,165.087082 290.989197,177.015564 
	C298.685547,186.681519 299.567230,198.141830 297.641205,209.804733 
	C297.064270,213.298553 298.072144,214.852203 300.643158,216.672882 
	C312.793976,225.277527 320.487183,236.419022 319.045898,252.024872 
	C317.924683,264.165100 310.959869,272.928925 301.400238,279.769257 
	C298.421265,281.900848 297.187714,283.746521 297.717529,287.807587 
	C298.481171,293.661346 298.610321,299.894104 297.444427,305.647827 
	C293.953888,322.873291 280.871887,333.101562 263.161072,333.118744 
	C258.361786,333.123413 253.000229,330.962250 248.925262,332.507477 
	C245.102203,333.957184 242.959030,339.364777 239.492783,342.353607 
	C235.628403,345.685791 231.105377,348.254089 226.582718,351.380249 
	C214.206924,356.161438 202.968384,354.250977 192.953323,346.428955 
	C188.522919,342.968719 185.038330,338.320404 180.845657,334.518799 
	C179.601868,333.390991 177.323868,332.641785 175.664734,332.853729 
	C161.525620,334.660004 148.329269,333.347534 137.827805,322.320251 
	C132.967178,317.216248 130.796570,310.926727 129.173874,304.115051 
	C127.590416,297.468109 129.333359,291.225067 129.423492,284.805054 
	C129.450256,282.898743 126.626907,280.506744 124.587952,279.085663 
	C102.722397,263.846283 102.234489,234.573334 123.811028,218.189911 
	C129.611679,213.785385 130.112030,212.387329 129.030426,205.213623 
	C126.416840,187.879303 135.149002,170.261246 152.280991,166.125992 
	C159.517868,164.379166 167.334656,165.034927 175.347504,164.605164 
M184.169601,228.162109 
	C183.954834,228.382202 183.752167,228.617035 183.515793,228.810760 
	C183.464447,228.852859 183.196823,228.760269 183.189957,228.708374 
	C183.061447,227.738556 182.957291,226.765503 182.753647,224.953201 
	C178.878296,229.009430 172.207672,229.926514 174.285583,237.067810 
	C174.925919,239.268539 175.888229,241.375580 176.703110,243.525528 
	C176.918854,243.410858 177.134598,243.296173 177.350342,243.181503 
	C177.350342,246.885880 177.350342,250.590271 177.350342,254.235580 
	C173.172913,253.637360 174.835159,257.535919 174.452240,259.318054 
	C173.148636,265.384949 175.691895,268.492401 183.163635,270.891296 
	C183.239349,269.980835 183.315048,269.070374 183.320267,269.007629 
	C186.484756,272.240631 189.738861,275.565216 192.887558,278.782104 
	C192.585114,278.860687 191.687531,279.093964 190.444794,279.416931 
	C191.754776,281.284882 192.754639,282.806244 193.850632,284.254852 
	C196.783844,288.131714 204.884277,289.720551 208.288177,286.541687 
	C211.617661,283.432281 216.134888,284.349548 218.358521,285.437317 
	C230.445709,291.349945 232.116379,287.640991 236.472366,279.088043 
	C235.551041,278.958679 234.635559,278.830139 234.320175,278.785858 
	C237.486404,275.747009 240.688309,272.673950 243.801331,269.686188 
	C243.917297,270.076233 244.141388,270.829895 244.545074,272.187592 
	C247.236786,268.160339 254.272003,268.411682 253.162796,261.651581 
	C252.634460,258.431549 253.929214,254.247467 249.932419,253.263199 
	C249.932419,249.746201 249.932419,246.511871 249.932419,243.277542 
	C251.248810,242.405609 252.384781,241.052979 252.691833,239.532913 
	C254.276581,231.687546 253.321533,230.227249 244.271210,225.625946 
	C244.034195,226.345871 243.797180,227.065781 243.816711,227.006439 
	C240.419220,224.051880 236.918671,221.007706 233.514740,218.047546 
	C234.310226,218.047546 235.517685,218.047546 236.905106,218.047546 
	C230.828598,208.209106 231.439880,206.792770 218.977875,210.806641 
	C219.648682,211.571884 220.319489,212.337143 220.566116,212.618500 
	C216.038193,212.618500 211.399277,212.618500 207.408356,212.618500 
	C207.635925,212.404358 208.279297,211.798950 209.239838,210.895096 
	C196.720856,207.126541 195.956955,207.878281 191.162552,217.893997 
	C191.945358,218.060516 192.728165,218.227036 192.537262,218.186432 
	C189.912033,221.278336 187.225311,224.442657 184.169601,228.162109 
M282.079376,186.545486 
	C275.091583,176.947357 265.354431,174.429001 254.292557,175.137665 
	C256.239807,183.877289 258.025604,192.120483 259.979919,200.323547 
	C260.183899,201.179703 261.279053,202.254730 262.140991,202.455917 
	C270.335022,204.368484 278.568024,206.114044 286.764130,207.902023 
	C287.682526,199.713593 286.676666,194.687881 282.079376,186.545486 
M164.999649,321.679901 
	C167.790237,321.679901 170.580826,321.679901 173.045288,321.679901 
	C171.244232,313.429840 169.583633,305.186432 167.512451,297.047516 
	C167.214432,295.876434 165.050079,294.770813 163.557190,294.391541 
	C159.394424,293.334015 155.094910,292.821777 150.917816,291.811340 
	C147.480316,290.979889 144.140671,289.743774 140.669067,288.659332 
	C138.223068,305.836517 147.551514,318.586334 164.999649,321.679901 
M151.083649,180.459991 
	C142.133209,187.642105 139.482193,197.147980 140.363449,208.308548 
	C146.292236,206.754318 151.667572,205.161240 157.128189,203.953934 
	C166.923447,201.788300 166.817810,201.857224 168.930984,192.277451 
	C170.187027,186.583374 171.918579,180.994202 173.477142,175.206345 
	C165.410599,174.454010 158.232910,175.823334 151.083649,180.459991 
M288.551666,234.975418 
	C285.588989,239.537491 282.626343,244.099564 279.925262,248.258850 
	C284.726624,256.187927 289.330261,263.790466 293.927063,271.381744 
	C311.936371,258.554016 308.986969,235.604019 293.454895,225.457687 
	C291.941742,228.416107 290.429840,231.372147 288.551666,234.975418 
M131.862823,270.524475 
	C132.889877,270.269226 134.474976,270.347992 134.858414,269.707489 
	C139.108887,262.606781 143.173187,255.394653 147.224426,248.323227 
	C142.757034,240.936829 138.066345,233.181183 133.384979,225.440994 
	C117.682892,237.759644 116.860664,254.973480 131.862823,270.524475 
M287.101288,294.436981 
	C287.101288,292.658020 287.101288,290.879089 287.101288,289.015808 
	C277.797760,291.256104 269.011719,293.371765 260.608124,295.395325 
	C258.430298,304.223206 256.295563,312.876343 254.161926,321.524933 
	C272.020111,324.171051 285.488007,313.445374 287.101288,294.436981 
M236.821899,168.587265 
	C223.878357,151.841171 203.437210,151.839157 190.663284,168.294601 
	C198.384094,172.956482 206.140625,177.639923 213.462570,182.060974 
	C221.090179,177.740646 228.710770,173.424286 236.821899,168.587265 
M192.767715,326.961212 
	C191.968750,327.427643 191.169769,327.894043 190.334244,328.381805 
	C204.133026,345.190491 225.502853,345.042633 236.538483,328.551361 
	C228.788651,323.898682 221.027283,319.239075 213.775436,314.885345 
	C206.882111,318.879974 200.150009,322.781158 192.767715,326.961212 
M188.976776,294.766632 
	C184.692230,294.978821 180.407684,295.190979 174.543213,295.481415 
	C177.597641,303.415253 180.355042,310.740143 183.313843,317.982758 
	C183.576736,318.626251 185.379883,319.292450 186.079971,319.004761 
	C193.295319,316.039459 200.430740,312.879669 207.962341,309.611816 
	C203.975723,304.883850 200.690979,301.547882 198.097488,297.740997 
	C195.896545,294.510345 193.538528,293.196198 188.976776,294.766632 
M243.539032,295.079193 
	C240.729492,294.774048 237.923477,294.297974 235.108841,294.239838 
	C233.807526,294.212982 232.035828,294.602325 231.255722,295.488312 
	C227.464767,299.793610 223.937347,304.330994 219.604584,309.662323 
	C226.773636,312.854156 233.510025,315.983612 240.385437,318.770020 
	C241.383331,319.174438 243.891235,318.293518 244.268753,317.401489 
	C247.261398,310.330566 249.907333,303.112885 252.976166,295.115692 
	C249.102524,295.115692 246.782745,295.115692 243.539032,295.079193 
M275.582062,257.064850 
	C275.186798,256.533386 274.791504,256.001923 274.396240,255.470474 
	C269.306610,259.859741 262.368622,263.361847 259.703339,268.914764 
	C257.511322,273.481628 260.390106,280.482391 261.126892,287.393524 
	C269.431671,284.350250 277.266541,281.479126 286.060516,278.256561 
	C282.355011,270.714844 279.153046,264.197876 275.582062,257.064850 
M151.661407,239.754486 
	C152.243881,240.514297 152.826355,241.274109 153.372559,241.986603 
	C157.871841,238.262817 162.260117,234.740997 166.489136,231.037369 
	C167.329575,230.301331 168.055237,228.838196 167.988770,227.762573 
	C167.642517,222.159576 167.023148,216.573456 166.372269,209.631805 
	C158.808746,212.493530 151.561066,215.115509 144.459229,218.086090 
	C143.638977,218.429184 142.926208,221.004684 143.360901,222.044785 
	C145.781921,227.837723 148.572174,233.476364 151.661407,239.754486 
M155.729202,283.910797 
	C159.321381,284.893097 162.913574,285.875366 166.476578,286.849670 
	C167.021118,280.857758 167.615906,275.422577 167.935959,269.971222 
	C168.011139,268.690796 167.553543,266.910675 166.665039,266.121613 
	C162.371765,262.308716 157.847717,258.755676 153.087723,254.849731 
	C151.060181,258.481354 148.816818,261.803894 147.253845,265.420441 
	C140.788635,280.380341 140.068634,277.208954 154.056137,283.303284 
	C154.360352,283.435822 154.667999,283.560486 155.729202,283.910797 
M233.943146,203.128296 
	C239.836533,202.538345 245.729904,201.948410 252.729141,201.247772 
	C249.919678,193.866837 247.338882,186.763519 244.418549,179.802658 
	C244.031387,178.879807 241.593277,177.890228 240.653702,178.274231 
	C233.650635,181.136200 226.785950,184.336792 219.457352,187.619553 
	C224.475464,193.326889 228.793488,198.237991 233.943146,203.128296 
M185.240952,202.082535 
	C187.055038,202.332260 188.880966,202.841370 190.679916,202.759293 
	C192.506470,202.675949 194.945908,202.612259 196.003845,201.490341 
	C199.935211,197.321320 203.408279,192.720123 207.655441,187.548065 
	C199.697800,183.898224 192.127075,180.425858 183.610779,176.519791 
	C180.458832,185.465103 177.718994,193.240845 174.772278,201.603760 
	C179.018982,201.789505 181.667267,201.905350 185.240952,202.082535 
M259.244995,227.359879 
	C259.634399,228.510376 259.679138,230.057297 260.470581,230.745438 
	C264.818542,234.525894 269.349304,238.096100 274.729767,242.482315 
	C278.401215,234.676483 281.982178,227.063110 285.977386,218.568970 
	C277.025238,215.441269 269.238647,212.720795 261.047058,209.858826 
	C260.409821,216.363144 259.911133,221.453094 259.244995,227.359879 
M188.056854,208.160843 
	C183.479889,208.446152 178.902924,208.731476 173.901703,209.043243 
	C173.630051,214.879105 173.377853,220.296631 173.122955,225.772217 
	C181.919724,223.765503 187.490555,219.292038 190.047424,211.391129 
	C190.538483,209.873749 192.168381,208.242569 188.056854,208.160843 
M212.098618,208.311996 
	C216.743362,207.199692 221.388123,206.087387 227.275101,204.677612 
	C222.120453,199.991684 218.016479,196.260895 213.610855,192.255905 
	C209.114960,196.458939 205.052856,200.256439 200.716583,204.310257 
	C204.800522,205.745270 208.084930,206.899368 212.098618,208.311996 
M185.676773,276.855804 
	C181.765656,274.882416 177.854538,272.909027 172.949692,270.434265 
	C173.354492,276.956543 173.693817,282.423706 174.042084,288.035034 
	C180.044342,288.396667 185.388031,288.718597 191.577988,289.091553 
	C189.415329,284.557648 187.733109,281.030945 185.676773,276.855804 
M262.380920,240.145111 
	C261.364594,238.449692 260.348267,236.754257 259.121674,234.708084 
	C253.145340,244.527237 253.223083,252.529205 258.337006,261.109406 
	C262.193359,256.880920 265.915497,252.799591 269.786530,248.554993 
	C267.229767,245.637115 265.046875,243.145920 262.380920,240.145111 
M253.917755,214.744324 
	C253.695389,212.953384 253.473038,211.162430 253.202835,208.986115 
	C247.498810,208.667618 242.010651,208.361176 236.222244,208.037964 
	C240.520721,219.705475 244.710297,223.772446 253.969772,225.612030 
	C253.969772,222.280624 253.969772,218.979736 253.917755,214.744324 
M243.376205,288.825500 
	C246.621857,288.492279 249.867523,288.159058 253.322739,287.804321 
	C253.571198,284.766479 253.873734,282.140594 253.977188,279.506897 
	C254.085144,276.758636 254.001282,274.002869 254.001282,271.125885 
	C243.476227,274.138397 239.131912,278.573456 236.522232,288.878479 
	C238.567566,288.878479 240.529556,288.878479 243.376205,288.825500 
M159.567276,246.108414 
	C159.413574,247.515121 158.591492,249.467773 159.219177,250.236252 
	C162.324738,254.038406 165.813446,257.527588 168.998398,260.946045 
	C174.485794,252.539078 174.197556,244.433716 169.053696,235.872360 
	C166.064270,239.080826 163.044449,242.321930 159.567276,246.108414 
M204.852997,291.368469 
	C203.751022,291.812073 202.649048,292.255676 200.886963,292.965027 
	C205.401215,297.111176 209.376511,300.762329 213.705902,304.738739 
	C218.146667,300.645599 222.195953,296.913330 226.517609,292.929993 
	C219.167328,289.960236 212.657089,286.991333 204.852997,291.368469 
z"/>
<path fill="#FCFDFE" opacity="1.000000" stroke="none" 
	d="
M649.500122,305.513367 
	C637.222595,294.053741 632.928589,280.256073 636.963440,264.465973 
	C641.019897,248.591202 651.851501,238.650253 667.551086,234.712891 
	C680.600830,231.440079 692.579834,234.418427 702.872498,243.473892 
	C705.265564,245.579269 705.594849,247.435577 703.467041,249.777191 
	C702.684631,250.638168 701.993225,251.582397 701.268127,252.494888 
	C697.025818,257.833984 697.026611,257.834625 691.380005,254.041733 
	C681.164551,247.179825 665.961365,249.316406 658.301147,258.690491 
	C649.960205,268.897644 650.764893,283.448914 660.180420,292.674744 
	C668.949219,301.266937 683.464417,301.926300 692.888000,293.698303 
	C696.442566,290.594757 698.262573,291.391693 700.799011,294.697144 
	C707.195862,303.033691 707.221313,303.472076 698.310974,309.263306 
	C682.745728,319.379883 665.166443,318.109161 649.500122,305.513367 
z"/>
<path fill="#FBFCFD" opacity="1.000000" stroke="none" 
	d="
M579.404480,314.980652 
	C578.671265,315.011536 578.345459,314.916290 578.016479,314.903656 
	C567.171509,314.487183 567.177002,314.488373 567.170288,303.375702 
	C567.166626,297.225220 567.140686,291.074738 567.038086,284.462646 
	C567.028503,270.341492 567.120972,256.681976 567.176941,243.022339 
	C567.210693,234.788361 567.192810,235.015259 575.310120,234.741684 
	C580.603394,234.563293 584.053284,236.272430 584.994629,241.031738 
	C590.654175,238.811844 596.098267,235.998810 601.884277,234.577332 
	C609.229980,232.772690 616.410828,234.503830 623.044434,238.233124 
	C625.406067,239.560806 626.073059,241.175934 624.329956,243.475403 
	C623.626831,244.402908 623.014404,245.399017 622.357117,246.361435 
	C617.533752,253.423080 617.541504,253.393204 609.242615,251.120728 
	C601.083496,248.886536 593.853455,250.696625 588.552917,257.282867 
	C586.549561,259.772247 585.217651,263.509277 585.136841,266.716858 
	C584.776123,281.040131 584.874207,295.378815 585.044128,309.709137 
	C585.090881,313.648529 583.671448,315.297363 579.404480,314.980652 
z"/>
<path fill="#FBFCFD" opacity="1.000000" stroke="none" 
	d="
M540.077087,204.262909 
	C533.250549,205.302368 529.125916,203.502991 527.337585,199.013382 
	C525.487671,194.369217 527.012573,190.146332 532.011353,186.366089 
	C535.124390,186.325897 538.379883,185.800522 540.871033,186.942612 
	C547.973145,190.198746 547.658813,200.933258 540.077087,204.262909 
z"/>
<path fill="#FCFDFE" opacity="1.000000" stroke="none" 
	d="
M394.265076,234.943085 
	C400.154877,214.492386 411.910461,199.330704 431.093536,190.386230 
	C455.874695,178.831543 485.564850,183.979355 505.188751,203.021835 
	C508.084686,205.831970 508.205536,207.785416 504.840942,210.102646 
	C501.560822,212.361725 498.558563,216.565308 495.238800,216.771820 
	C492.206116,216.960464 488.866730,213.004013 485.740173,210.765854 
	C470.244659,199.673431 449.531769,198.825180 434.002197,208.690430 
	C417.501709,219.172440 408.404266,238.765091 411.529999,257.087463 
	C415.074005,277.861786 428.319824,292.428192 447.947937,296.846863 
	C463.885895,300.434814 478.057526,296.601654 490.046753,285.621216 
	C493.339294,282.605682 495.660187,282.112701 498.803833,285.315643 
	C500.425659,286.968048 502.314087,288.409668 504.250916,289.691406 
	C508.182068,292.292969 507.565582,294.584351 504.490753,297.592102 
	C482.194824,319.401611 445.993622,322.129211 420.436157,303.778961 
	C418.813690,302.614044 417.257965,301.356079 415.355560,300.014526 
	C403.390533,289.034149 395.284149,276.052185 393.627655,260.064728 
	C392.784882,251.931107 393.972900,243.587051 394.265076,234.943085 
z"/>
<path fill="#FEFEFE" opacity="1.000000" stroke="none" 
	d="
M545.012207,235.987228 
	C545.071594,260.647247 545.053101,285.310516 545.205566,309.972778 
	C545.228760,313.726532 543.796936,315.141937 540.202332,314.864105 
	C538.545593,314.736023 536.868713,314.895569 535.204956,314.827698 
	C529.522095,314.595856 527.661133,312.915527 527.640137,307.248383 
	C527.556213,284.584595 527.634949,261.920258 527.567688,239.256378 
	C527.558350,236.103836 528.659485,234.578720 531.939514,234.811890 
	C536.056396,235.104507 540.181824,235.276627 544.662354,235.729111 
	C545.021118,235.957474 544.990112,235.990173 545.012207,235.987228 
z"/>
<path fill="#4F73AB" opacity="1.000000" stroke="none" 
	d="
M1035.240479,253.587799 
	C1043.903687,259.712128 1047.711182,267.964478 1046.634521,277.953156 
	C1045.633057,287.243683 1040.301636,294.028625 1031.642090,297.624573 
	C1021.214905,301.954468 1010.021423,298.620087 1003.089905,289.605469 
	C996.543335,281.091644 996.591431,268.854126 1003.207092,259.794067 
	C1009.625244,251.004486 1020.672180,247.832962 1031.296997,251.758469 
	C1032.539917,252.217651 1033.726074,252.830551 1035.240479,253.587799 
z"/>
<path fill="#587AAF" opacity="1.000000" stroke="none" 
	d="
M1304.257568,249.867096 
	C1317.348389,249.871857 1325.511841,256.134979 1326.767700,267.128174 
	C1313.035767,267.128174 1299.344238,267.128174 1285.645386,267.128174 
	C1285.954102,258.276062 1292.752197,251.870560 1304.257568,249.867096 
z"/>
<path fill="#4F73AB" opacity="1.000000" stroke="none" 
	d="
M807.965820,267.520935 
	C798.144165,267.486633 788.815674,267.455811 779.487244,267.402740 
	C779.187134,267.401031 778.888367,267.171265 778.590271,267.044678 
	C778.326782,257.448578 789.282837,249.900360 798.244751,249.782425 
	C809.854797,249.629669 818.568054,256.371368 819.773254,267.520996 
	C815.971130,267.520996 812.215088,267.520996 807.965820,267.520935 
z"/>
<path fill="#3F67A4" opacity="1.000000" stroke="none" 
	d="
M184.354095,227.884537 
	C187.225311,224.442657 189.912033,221.278336 192.537262,218.186432 
	C192.728165,218.227036 191.945358,218.060516 191.162720,217.893219 
	C195.956955,207.878281 196.720856,207.126541 209.239838,210.895096 
	C208.279297,211.798950 207.635925,212.404358 207.408356,212.618500 
	C211.399277,212.618500 216.038193,212.618500 220.566116,212.618500 
	C220.319489,212.337143 219.648682,211.571884 218.978165,210.804810 
	C231.439880,206.792770 230.828598,208.209106 236.905106,218.047546 
	C235.517685,218.047546 234.310226,218.047546 233.514740,218.047546 
	C236.918671,221.007706 240.419220,224.051880 243.816711,227.006439 
	C243.797180,227.065781 244.034195,226.345871 244.271332,225.626068 
	C253.321533,230.227249 254.276581,231.687546 252.691833,239.532913 
	C252.384781,241.052979 251.248810,242.405609 249.932419,243.277542 
	C249.932419,246.511871 249.932419,249.746201 249.932419,253.263199 
	C253.929214,254.247467 252.634460,258.431549 253.162796,261.651581 
	C254.272003,268.411682 247.236786,268.160339 244.545074,272.187592 
	C244.141388,270.829895 243.917297,270.076233 243.801331,269.686188 
	C240.688309,272.673950 237.486404,275.747009 234.320175,278.785858 
	C234.635559,278.830139 235.551041,278.958679 236.472366,279.088043 
	C232.116379,287.640991 230.445709,291.349945 218.358521,285.437317 
	C216.134888,284.349548 211.617661,283.432281 208.288177,286.541687 
	C204.884277,289.720551 196.783844,288.131714 193.850632,284.254852 
	C192.754639,282.806244 191.754776,281.284882 190.444794,279.416931 
	C191.687531,279.093964 192.585114,278.860687 192.887558,278.782104 
	C189.738861,275.565216 186.484756,272.240631 183.320267,269.007629 
	C183.315048,269.070374 183.239349,269.980835 183.160629,270.891052 
	C175.691895,268.492401 173.148636,265.384949 174.452240,259.318054 
	C174.835159,257.535919 173.172913,253.637360 177.350342,254.235580 
	C177.350342,250.590271 177.350342,246.885880 177.350342,243.181503 
	C177.134598,243.296173 176.918854,243.410858 176.703110,243.525528 
	C175.888229,241.375580 174.925919,239.268539 174.285583,237.067810 
	C172.207672,229.926514 178.878296,229.009430 182.753647,224.953201 
	C182.957291,226.765503 183.061447,227.738556 183.189957,228.708374 
	C183.196823,228.760269 183.464447,228.852859 183.515793,228.810760 
	C183.752167,228.617035 183.954834,228.382202 184.354095,227.884537 
M220.085861,284.922943 
	C220.177643,284.726501 220.269424,284.530060 220.361221,284.333649 
	C220.102036,284.261108 219.842834,284.188599 219.583633,284.116089 
	C219.548019,284.419586 219.512405,284.723053 220.085861,284.922943 
M195.928406,279.698578 
	C195.877487,279.556885 195.826553,279.415161 195.775635,279.273468 
	C195.722107,279.421661 195.668564,279.569824 195.928406,279.698578 
M195.587387,217.746094 
	C195.744354,217.638824 195.901321,217.531555 196.058289,217.424301 
	C195.834198,217.445953 195.610092,217.467621 195.587387,217.746094 
z"/>
<path fill="#4168A5" opacity="1.000000" stroke="none" 
	d="
M282.297119,186.839630 
	C286.676666,194.687881 287.682526,199.713593 286.764130,207.902023 
	C278.568024,206.114044 270.335022,204.368484 262.140991,202.455917 
	C261.279053,202.254730 260.183899,201.179703 259.979919,200.323547 
	C258.025604,192.120483 256.239807,183.877289 254.292557,175.137665 
	C265.354431,174.429001 275.091583,176.947357 282.297119,186.839630 
z"/>
<path fill="#3F67A4" opacity="1.000000" stroke="none" 
	d="
M164.574158,321.623108 
	C147.551514,318.586334 138.223068,305.836517 140.669067,288.659332 
	C144.140671,289.743774 147.480316,290.979889 150.917816,291.811340 
	C155.094910,292.821777 159.394424,293.334015 163.557190,294.391541 
	C165.050079,294.770813 167.214432,295.876434 167.512451,297.047516 
	C169.583633,305.186432 171.244232,313.429840 173.045288,321.679901 
	C170.580826,321.679901 167.790237,321.679901 164.574158,321.623108 
z"/>
<path fill="#3F67A4" opacity="1.000000" stroke="none" 
	d="
M151.390381,180.259735 
	C158.232910,175.823334 165.410599,174.454010 173.477142,175.206345 
	C171.918579,180.994202 170.187027,186.583374 168.930984,192.277451 
	C166.817810,201.857224 166.923447,201.788300 157.128189,203.953934 
	C151.667572,205.161240 146.292236,206.754318 140.363449,208.308548 
	C139.482193,197.147980 142.133209,187.642105 151.390381,180.259735 
z"/>
<path fill="#4269A5" opacity="1.000000" stroke="none" 
	d="
M288.734802,234.651794 
	C290.429840,231.372147 291.941742,228.416107 293.454895,225.457687 
	C308.986969,235.604019 311.936371,258.554016 293.927063,271.381744 
	C289.330261,263.790466 284.726624,256.187927 279.925262,248.258850 
	C282.626343,244.099564 285.588989,239.537491 288.734802,234.651794 
z"/>
<path fill="#3F67A4" opacity="1.000000" stroke="none" 
	d="
M131.600494,270.295227 
	C116.860664,254.973480 117.682892,237.759644 133.384979,225.440994 
	C138.066345,233.181183 142.757034,240.936829 147.224426,248.323227 
	C143.173187,255.394653 139.108887,262.606781 134.858414,269.707489 
	C134.474976,270.347992 132.889877,270.269226 131.600494,270.295227 
z"/>
<path fill="#4168A5" opacity="1.000000" stroke="none" 
	d="
M287.087341,294.887146 
	C285.488007,313.445374 272.020111,324.171051 254.161926,321.524933 
	C256.295563,312.876343 258.430298,304.223206 260.608124,295.395325 
	C269.011719,293.371765 277.797760,291.256104 287.101288,289.015808 
	C287.101288,290.879089 287.101288,292.658020 287.087341,294.887146 
z"/>
<path fill="#4168A5" opacity="1.000000" stroke="none" 
	d="
M236.576630,168.847595 
	C228.710770,173.424286 221.090179,177.740646 213.462570,182.060974 
	C206.140625,177.639923 198.384094,172.956482 190.663284,168.294601 
	C203.437210,151.839157 223.878357,151.841171 236.576630,168.847595 
z"/>
<path fill="#3F67A4" opacity="1.000000" stroke="none" 
	d="
M193.092804,326.821777 
	C200.150009,322.781158 206.882111,318.879974 213.775436,314.885345 
	C221.027283,319.239075 228.788651,323.898682 236.538483,328.551361 
	C225.502853,345.042633 204.133026,345.190491 190.334244,328.381805 
	C191.169769,327.894043 191.968750,327.427643 193.092804,326.821777 
z"/>
<path fill="#4168A5" opacity="1.000000" stroke="none" 
	d="
M189.413864,294.701965 
	C193.538528,293.196198 195.896545,294.510345 198.097488,297.740997 
	C200.690979,301.547882 203.975723,304.883850 207.962341,309.611816 
	C200.430740,312.879669 193.295319,316.039459 186.079971,319.004761 
	C185.379883,319.292450 183.576736,318.626251 183.313843,317.982758 
	C180.355042,310.740143 177.597641,303.415253 174.543213,295.481415 
	C180.407684,295.190979 184.692230,294.978821 189.413864,294.701965 
z"/>
<path fill="#4168A5" opacity="1.000000" stroke="none" 
	d="
M244.000992,295.097443 
	C246.782745,295.115692 249.102524,295.115692 252.976166,295.115692 
	C249.907333,303.112885 247.261398,310.330566 244.268753,317.401489 
	C243.891235,318.293518 241.383331,319.174438 240.385437,318.770020 
	C233.510025,315.983612 226.773636,312.854156 219.604584,309.662323 
	C223.937347,304.330994 227.464767,299.793610 231.255722,295.488312 
	C232.035828,294.602325 233.807526,294.212982 235.108841,294.239838 
	C237.923477,294.297974 240.729492,294.774048 244.000992,295.097443 
z"/>
<path fill="#4269A5" opacity="1.000000" stroke="none" 
	d="
M275.766541,257.372864 
	C279.153046,264.197876 282.355011,270.714844 286.060516,278.256561 
	C277.266541,281.479126 269.431671,284.350250 261.126892,287.393524 
	C260.390106,280.482391 257.511322,273.481628 259.703339,268.914764 
	C262.368622,263.361847 269.306610,259.859741 274.396240,255.470474 
	C274.791504,256.001923 275.186798,256.533386 275.766541,257.372864 
z"/>
<path fill="#3F67A4" opacity="1.000000" stroke="none" 
	d="
M151.448792,239.461121 
	C148.572174,233.476364 145.781921,227.837723 143.360901,222.044785 
	C142.926208,221.004684 143.638977,218.429184 144.459229,218.086090 
	C151.561066,215.115509 158.808746,212.493530 166.372269,209.631805 
	C167.023148,216.573456 167.642517,222.159576 167.988770,227.762573 
	C168.055237,228.838196 167.329575,230.301331 166.489136,231.037369 
	C162.260117,234.740997 157.871841,238.262817 153.372559,241.986603 
	C152.826355,241.274109 152.243881,240.514297 151.448792,239.461121 
z"/>
<path fill="#3F67A4" opacity="1.000000" stroke="none" 
	d="
M155.351624,283.799805 
	C154.667999,283.560486 154.360352,283.435822 154.056137,283.303284 
	C140.068634,277.208954 140.788635,280.380341 147.253845,265.420441 
	C148.816818,261.803894 151.060181,258.481354 153.087723,254.849731 
	C157.847717,258.755676 162.371765,262.308716 166.665039,266.121613 
	C167.553543,266.910675 168.011139,268.690796 167.935959,269.971222 
	C167.615906,275.422577 167.021118,280.857758 166.476578,286.849670 
	C162.913574,285.875366 159.321381,284.893097 155.351624,283.799805 
z"/>
<path fill="#4168A5" opacity="1.000000" stroke="none" 
	d="
M233.527328,203.138702 
	C228.793488,198.237991 224.475464,193.326889 219.457352,187.619553 
	C226.785950,184.336792 233.650635,181.136200 240.653702,178.274231 
	C241.593277,177.890228 244.031387,178.879807 244.418549,179.802658 
	C247.338882,186.763519 249.919678,193.866837 252.729141,201.247772 
	C245.729904,201.948410 239.836533,202.538345 233.527328,203.138702 
z"/>
<path fill="#4168A5" opacity="1.000000" stroke="none" 
	d="
M184.778259,202.051849 
	C181.667267,201.905350 179.018982,201.789505 174.772278,201.603760 
	C177.718994,193.240845 180.458832,185.465103 183.610779,176.519791 
	C192.127075,180.425858 199.697800,183.898224 207.655441,187.548065 
	C203.408279,192.720123 199.935211,197.321320 196.003845,201.490341 
	C194.945908,202.612259 192.506470,202.675949 190.679916,202.759293 
	C188.880966,202.841370 187.055038,202.332260 184.778259,202.051849 
z"/>
<path fill="#4269A5" opacity="1.000000" stroke="none" 
	d="
M259.328735,226.951447 
	C259.911133,221.453094 260.409821,216.363144 261.047058,209.858826 
	C269.238647,212.720795 277.025238,215.441269 285.977386,218.568970 
	C281.982178,227.063110 278.401215,234.676483 274.729767,242.482315 
	C269.349304,238.096100 264.818542,234.525894 260.470581,230.745438 
	C259.679138,230.057297 259.634399,228.510376 259.328735,226.951447 
z"/>
<path fill="#456CA7" opacity="1.000000" stroke="none" 
	d="
M188.482788,208.163452 
	C192.168381,208.242569 190.538483,209.873749 190.047424,211.391129 
	C187.490555,219.292038 181.919724,223.765503 173.122955,225.772217 
	C173.377853,220.296631 173.630051,214.879105 173.901703,209.043243 
	C178.902924,208.731476 183.479889,208.446152 188.482788,208.163452 
z"/>
<path fill="#4269A5" opacity="1.000000" stroke="none" 
	d="
M211.733978,208.182724 
	C208.084930,206.899368 204.800522,205.745270 200.716583,204.310257 
	C205.052856,200.256439 209.114960,196.458939 213.610855,192.255905 
	C218.016479,196.260895 222.120453,199.991684 227.275101,204.677612 
	C221.388123,206.087387 216.743362,207.199692 211.733978,208.182724 
z"/>
<path fill="#4269A5" opacity="1.000000" stroke="none" 
	d="
M185.863831,277.180054 
	C187.733109,281.030945 189.415329,284.557648 191.577988,289.091553 
	C185.388031,288.718597 180.044342,288.396667 174.042084,288.035034 
	C173.693817,282.423706 173.354492,276.956543 172.949692,270.434265 
	C177.854538,272.909027 181.765656,274.882416 185.863831,277.180054 
z"/>
<path fill="#456CA7" opacity="1.000000" stroke="none" 
	d="
M262.622467,240.399933 
	C265.046875,243.145920 267.229767,245.637115 269.786530,248.554993 
	C265.915497,252.799591 262.193359,256.880920 258.337006,261.109406 
	C253.223083,252.529205 253.145340,244.527237 259.121674,234.708084 
	C260.348267,236.754257 261.364594,238.449692 262.622467,240.399933 
z"/>
<path fill="#456CA7" opacity="1.000000" stroke="none" 
	d="
M253.943756,215.211594 
	C253.969772,218.979736 253.969772,222.280624 253.969772,225.612030 
	C244.710297,223.772446 240.520721,219.705475 236.222244,208.037964 
	C242.010651,208.361176 247.498810,208.667618 253.202835,208.986115 
	C253.473038,211.162430 253.695389,212.953384 253.943756,215.211594 
z"/>
<path fill="#4269A5" opacity="1.000000" stroke="none" 
	d="
M242.933884,288.851990 
	C240.529556,288.878479 238.567566,288.878479 236.522232,288.878479 
	C239.131912,278.573456 243.476227,274.138397 254.001282,271.125885 
	C254.001282,274.002869 254.085144,276.758636 253.977188,279.506897 
	C253.873734,282.140594 253.571198,284.766479 253.322739,287.804321 
	C249.867523,288.159058 246.621857,288.492279 242.933884,288.851990 
z"/>
<path fill="#4168A5" opacity="1.000000" stroke="none" 
	d="
M159.795944,245.835724 
	C163.044449,242.321930 166.064270,239.080826 169.053696,235.872360 
	C174.197556,244.433716 174.485794,252.539078 168.998398,260.946045 
	C165.813446,257.527588 162.324738,254.038406 159.219177,250.236252 
	C158.591492,249.467773 159.413574,247.515121 159.795944,245.835724 
z"/>
<path fill="#4269A5" opacity="1.000000" stroke="none" 
	d="
M205.242218,291.258881 
	C212.657089,286.991333 219.167328,289.960236 226.517609,292.929993 
	C222.195953,296.913330 218.146667,300.645599 213.705902,304.738739 
	C209.376511,300.762329 205.401215,297.111176 200.886963,292.965027 
	C202.649048,292.255676 203.751022,291.812073 205.242218,291.258881 
z"/>
<path fill="#FAFBFD" opacity="1.000000" stroke="none" 
	d="
M219.781342,284.974731 
	C219.512405,284.723053 219.548019,284.419586 219.583633,284.116089 
	C219.842834,284.188599 220.102036,284.261108 220.361206,284.333649 
	C220.269424,284.530060 220.177643,284.726501 219.781342,284.974731 
z"/>
<path fill="#FAFBFD" opacity="1.000000" stroke="none" 
	d="
M195.771729,279.708313 
	C195.668564,279.569824 195.722107,279.421661 195.775635,279.273468 
	C195.826553,279.415161 195.877487,279.556885 195.771729,279.708313 
z"/>
<path fill="#FAFBFD" opacity="1.000000" stroke="none" 
	d="
M195.486694,217.617676 
	C195.610092,217.467621 195.834198,217.445953 196.058289,217.424286 
	C195.901321,217.531555 195.744354,217.638824 195.486694,217.617676 
z"/>
</svg>